<?xml version="1.0" encoding="utf-8"?><!DOCTYPE svg PUBLIC "-//W3C//DTD SVG 1.1//EN" "http://www.w3.org/Graphics/SVG/1.1/DTD/svg11.dtd"><svg xmlns="http://www.w3.org/2000/svg" xmlns:xlink="http://www.w3.org/1999/xlink"><symbol viewBox="0 0 199.999 63.471" id="brand-logo" xmlns="http://www.w3.org/2000/svg" role="img" aria-labelledby="logo_title logo_desc"><title id="logo_title">ホクエイ Northern Films</title><desc id="logo_desc">北映（ホクエイ）のロゴ画像</desc><path class="aa" d="M71.236 46.459l-.114-.228.114-.569h-.342l.114-.114-.114-.228.114-.683-.455-.342-.569-.682-.342-1.025.114-.569-.228-.684h.228v-.228l-.114-.341.114-.342a3.436 3.436 0 00-.626-.683.75.75 0 01-.285-.8l.114-.341c-.227.076-.38.038-.456-.114s-.152-.3-.228-.455v-.34l.114-.342.455-.114-.114.342a1.4 1.4 0 00.8.227 2.511 2.511 0 01.8.115l1.025-.342.455.114.911-.228.342.115q1.367-.342 2.676-.741t2.676-.854v-.227h.341l.228-.456-.114-.114.114-.114-.456-.228-.341.228.683-.683.911-1.025.228-1.025.114.114-.114.342.228.569.456-1.025-.228-.114v-.455l.114-.684-.114-.114.114-.114-.114-1.025.114-.114-.114-.342.114-.114-.114-.114.114-.114-.114-.228.114-.228.114.342-.114.114.341 1.594.228-.341-.114-.228.114-.114-.228-4.1a15.932 15.932 0 00-.683-3.871l.228-.114-.456-.114-.341.228.114.114a3.039 3.039 0 00-1.025.4 3.035 3.035 0 01-1.025.4c0 .228-.076.361-.228.4a2.214 2.214 0 00-.455.17l-1.594.569v.228h-.114l-.228-.114-.114.114.114.114h-.228l-.114-.114-.342.456h-.227v.229l-.456.114-.228.341-.8 1.025h-.114q-.57-.227-1.2-.512a3.616 3.616 0 01-1.082-.741 9.556 9.556 0 01-.626-1.252 3.8 3.8 0 01-.285-1.48l.57-1.139-.228-.683.456-.228-.114.114.456.114 1.139-.57.114.114.114-.114.228.114.8-.228 1.025.342 1.367-.342.114.114.8-.341.228.114 2.733-.8.114.114 1.025-.57-.228-.455-.114.114.228-.341-.114-.456.114.114.114-.228-.342-.228v-.114l.114-.114.114.341.456-.341-.114-.228.114-.228-.114-.228.228-.114-.456-.228-.114-.455.228-.911h.228v-.341l-.114-.114.114-.114-.341-.57.114-.114-.114-.114.114-.114-.228-.114-.122-.225-.114.114.114-.114-.227-.114.114-.342h-.233l-.227.114v-.228h-.342l-.114.456.114.114-.228.683h-.114l-.228-1.708h-.341l-.683-.911-.8-.342-.228.114v-.456l-.683-.456-.114.114v-.338l-.341-.114-.228.228-.114-.114h.342v-.228L75.1 8.088h-.228l-.228-.911-.114.114-.228-.8.114-.228.342-.228.456-1.48-.114-.114.114-.114.114.114 1.025-.456.341.114a2.367 2.367 0 01.74-.513 1.63 1.63 0 01.968-.057l.455.683.456.114.342-.683h.569a2.355 2.355 0 00.741.512 5.567 5.567 0 00.854.285l.456.8h.228l.569.8-.114.114.114.114h-.228v.341l.114.342h.228l.114.342-.114.227h-.228v.221q.455 1.481.854 3.018t.74 3.132l.341-.684-.114-.455v.227l.114.57h-.222l-.114.456.114.114.228-.342h.114l.569 2.163.228-.114-.114.456.228 1.025.114-.114-.228.228.114 2.164-.455.341.114.114.114-.114v.115l-.341.114.114.228h-.227v.342l.227.228.114-.114.114.228-.114.114.114.114-.227-.343-.114 3.074.114.115-.114.342.114.114h-.227l-.114.569.114.114.114-.228h.113v.569l-.114.342h-.114l-.114-.342-.341.911.114.114-.114.114.114.228-.114.228.228 1.367-.114.342.114.114-.114.228.228.228.114-.342v.342l-.455.569.114.114-.228.455.114.114.228-.114.114.114.114-.114v.108h-.228v.228l.114.114-.114.228h-.228l.114-.114-.456-.228-.114.114.228.114-.342.114-.228-.342-.114.911.114.114.114-.455h.114l.114.228.228-.114v.228l-.114-.114-.114.227.228.342.228-.8h.341l-.114.114.228.114v.114h-.228v.228l.114.228h-.228v.228h-.114l-.342-.114-.228.456h.228l.228.569.228-.341.114.228.114-.341v.228h.456l.57-.114v-.227l.228.114 2.391-1.252-.114-.114.228-.114.114.114.114-.228.569-.228.228-.342.342.114.456-.114v-.228h.114l.114.114 1.367-.683v.342l-.227.227.227.114v.114l-.569.228v.228l.114.228-.911.683-.455 1.481h.341l.114-.114-.341.114v.341h.228q.683-.342 1.31-.626a11.8 11.8 0 001.2-.626v-.228h.114l.114.114.228-.114-.114.114.456.228-4.1 2.049.114.228h-.114l.114-.114-.228-.114-.341.342-.114-.114-.341.228.114.114h-.114l-.114-.114-.342.114-.228.569.228.114.228-.455v.227h.456l.911-.341v-.228l.341-.114-.114.228.114.114.8-.456-4.1 2.05.114.114-.228-.114-.114.114.114.114-.114.115.114.114-1.253.456v.228l-1.252.342v-.114h.114l.114.114.569-.57-.114-.114-.456.114v.228l-.57-.114v.228l.114.228v-.114l-.342-.228-.569.228-.114.228a.408.408 0 00-.455.057 1.129 1.129 0 00-.342.4l.114.114.911-.342v.115l-.342.227-.114-.114-.114.228-1.367.569-.114-.114-.342.342-.227-.115-.342.228-.114-.114-.228.341-.228-.114-.114.114.114.115h-.227l-.228-.228-.228.342.114.114h-.228l-.228-.114-.114.114.114.114-.114-.114-.228.228-.341-.114-1.025.456.228.114h-.114l-.341-.114-.8.341.114.115-.456-.115v.228l-.228-.114-.227.227.114.114-1.025.455-1.367 1.936-.683.569v.228l-.342.341-.569.115v.227zm-1.252-25.507v-.111l-.114-.114-.114.228.114.114zm3.987-13.778l-.114-.114.114-.114zm0-3.189v-.344l.114-.228h.114zm.341.342v-.228l.114-.228v.456zm.456 1.936l-.114-.114-.114.114.114.114zm.228 36.211v-.233l-.114-.114-.114.341.114.114zm.228-36.1V6.26l-.114-.114-.114.228.114.114zm0 35.756l-.114-.114-.114.114.114.114zm.228-36.552l-.114-.114-.114.114.114.114zm.456-.114V5.35l.114-.456h-.341l-.114.342.227.341zm.341-.57v-.228l.114-.341h-.456v.569zm.228-.569l.114-.114-.342-.114v.228l.114.114zm3.075-1.48l-.57-.456h.8v.114l-.341.114.228.228zm-.228 37.122l-.114-.114-.228.341.456.115.911-.456-.228-.114-.455.114-.114-.114-.114.228zm-.228-25.621v-.227l.114.114zm.114.456l-.114-.228v.114zm.569 24.824v-.455h-.227l-.342.227zm.57-27.1l-.228-.114-.114.114.228.114zm0 27.9l-.114-.114-.114.114.114.114zm.228-37.691l-.342-.114v-.23h.456v.114zm-.114 15.145l.114-.456h-.342v.456l.114.114zm0 .228l-.114-.114-.114.114.114.114zm.114 9.906l-.228-1.139.114-1.48.114.683-.114.456.114.8-.114.114zm.114-13.437l-.114-.114-.114.114.114.114zm.114 1.252l-.114-.114-.114.114.114.114zm.114-.341l-.114-.114-.114.114.114.114zm.114 1.253v-.114l.114-.341h-.228l-.114-.228-.114.341.228.456zm0 16.056v-1.141l.114-.456-.341-.228-.114.114.114.114-.114 1.48.228.228zm-.114 7.4l-.114-.114-.114.114.114.115zm.114-24.14l-.114-.114-.114.114.114.114zm0 1.025l-.114-.114-.114.114.114.114zm0 .228l-.114-.114-.114.114.114.114zm.114-.342l-.114-.114-.114.114zm0 13.664l-.114-.114-.114.114.114.114zm.341-28.126l-.455-.228.114-.114.683.228zm-.117 37.462l-.228-.114-.114.114.227.114zm.114-.114v-.113l-.114-.114-.114.227zm.342-16.283l.228-.228-.456-.114v.342l.114.114zm.683 4.327l-.114-.114.114-.342-.228-.228.114-.342h-.225v-.341l.114.341.114-.8-.342-.114h.114l.114.114.114-.228-.114-.114.114-.456-.228-.683.114-.456-.228-.569-.342.569.114.114-.114.114.114.228-.114.114.114.228-.114.114.228.228-.114.228.228.228-.114-.114-.114.683h.228l-.342.683.114.342-.114.341h.342l.342.341zm-.114 3.074v-.231l.114-.114-.114-.114.114-.114-.341-.228.114-.228h.228v-.902l-.114-.114-.228.227v-.113l.228-.456-.226-.344.114-.114-.342-.456-.114.228.114.114-.228.342.114.228-.114.228.114.228-.114.228.228.341-.114.228.114.114-.114.114.114.456-.114.114.228.114v.228zm-.228 1.252v-.228l-.114-.114-.342.228zm.228-1.025l-.57-.228v.228l.114.114.114-.114.228.114zm-.114.57l.114-.228-.456-.228v.228l.114.114h-.228v.228l.114.114zm-.228 7.857l-.114-.114-.114.114.114.114zm1.025-28.923l.114-.228-.57-1.822-.341-.114-.342.8 1.025 1.48zm-.908 21.864l-.114-.114-.114.114.114.114zm.114 6.946l-.228-.228-.114.228zm.114-7.174l-.228-.114-.114.114.228.114zm.114-2.278l-.114-.114-.114.114.114.114zm.569-22.774l.114-.228-.228-.228-.114.456.114.114zm.911 25.848l-.114-.114-.114.114.114.114zm.683-2.96v-.228l.114-.114-.114-.683.114-.227-.342-2.164-.342 1.252.114.114h-.228l-.114.456.341.114-.114.114.114.114-.228-.114-.114.114.114.114-.114.456.114.114.228-.341.228.569-.228.228zm-.57.683l.114-.114.228.114.114-.114-.228-.455-.228.227v-.114l.114-.342h-.349v.8l.114.114zm.114-1.138l-.114-.114-.114.114.114.114zm.339-3.079V26.3l-.228-.341-.228.683.114.114zm-.228 5.7v-.114l-.114-.114-.114.228.114.114zm-.114-25.507l.228-.341v.114l-.114.228zm.228 1.367v-.57l-.228-.569h.114l.228.911zm.114 27.329l.114-.114-.342-.114v.228l.114.114zm.114-5.124l-.114-.114-.114.341.114.114zm.228 4.668l-.114-.114-.114.114.114.114zm.228 2.391l-.114-.114-.114.114.114.115zm.114-21.863v-.114l-.114-.114-.114.228.114.114zm.114 19.586v-.228h.228v-.342h-.228l-.341.228.114.114-.114.114zm-.114.114l-.114-.114-.114.114.114.114zm.228 1.933l.114-.114-.228-.114-.114.114-.114-.114-.114.228.114.114zm-.114-21.408l-.114-.114-.114.114.114.114zm.114.684v-.114l-.227-.341-.114.341.228.228zm0 1.48l-.114-.114-.114.228.114.114zm.114.228l-.114-.114-.114.114.114.114zm0 .228l-.114-.114-.114.114.114.114zm.114.8v-.114l-.228-.231-.114.228.228.228zm-.114.228v-.114l-.114-.12-.114.228.114.114zm.228 18.106v-.115h.228l.114-.569-.114-.114-.114.114-.228-.114-.114.114.114.114-.114.341-.228.114.341.228zm.228.569v-.227l-.114-.115-.569.228.341.227zm-.228-27.785l-.114-.455.114.114-.114.114zm-.114 11.5v-.344l.114.114zm.456-10.021v-.227l-.342-.911.114-.114zm0 22.888v-.114l-.114-.114-.114.228.114.114zm.228 2.163v-.114l.341-.114-.341-.228-.228.456.114.114zm0 .911l-.114-.114-.114.114.114.115zm.341 0l.227-.227-.455-.115v.228zM86.61 13.78v-.228l.114.228zm.114.456l-.114-.114h.114zm.341 22.66l.114-.114-.228-.114-.114-.228-.228.456.341.114zm-.228-21.635v-.456h.114l.114.228-.114.228zm.114.683v-.114l-.114-.114.114-.114.228.114v.114zm0 9.337v-.569l-.114-.342.114-.114-.114-.114zm.114 11.045l-.114-.114-.114.342h.342l.114-.114zm.228-17.878v-.341l-.228-1.025.114-.114-.228-.683h.228l.114.683-.114.114.114.114-.114.57.228.342zm-.342 8.882v-1.026l.114.228-.114.114.114.684zm.57 9.451v-.228h.456v-.228l.341-.228-.341-.228-.456.228.114.114-.228-.114-.114.114.114.114-.228.341zm-.114-17.308v-.232l-.114-.114zm0 .683v-.228l.228-.114v.114l-.114.228zm.114.911v-.226h.228l.114.114-.342-.114zm.342 16.283l.227-.114h-.119zm.569-1.48l-.228-.114-.114.114.228.114zm13.439 11.158v-.227h-.456l-.227.114v-.228l-.8-.114-.8-.684a.771.771 0 01-.57-.227 1.45 1.45 0 00-.569-.342 21.632 21.632 0 01-1.765-4.5 22.529 22.529 0 01-.74-4.84l.114-.114-.114-.114.114-.228-.114-.342.114-.228-.228-.569.114-.228-.341-1.025.114-.456-.114-.341.114-.114-.341-.683.114-.114-.114-.114.114-.114-.342-1.139.114-.341-.228-.342.114-.114-.114-.456.114-.114-.228-.8.114-.228-.228-1.48.114-.455v-.911l-.114-.114.114-.342-.227-.456.114-.114-.227-.114h.227v-.335l-.569-1.025.342-.114v-.342l-.114-.341h-.342l-.228-.683.114.114.228-.8-.114-.114-.114.114.228-.342-.114-.455h-.228l.228-.342-.228-.456-.114.114-.114-.228.228-.114-.228-.683-.228.114h.228v-.456l-.114-.114-.114.114.114-.342h-.228v-.114h.228v-.335l-.114-.114-.114.228v-.114l.114-.228-.114-.114-.228.114h.228l.114-.342-.227-.114v-.114l.227-.228-.114-.341h-.341v-.114h.228v-.569l-.228-.228.114-.456-.342-.456.114.114.114-.341-.342-.569.114.114.114-.341-.114-.114-.114.114.114-.342-.341-.683.114-.114-.228-.228.228-.114-.114-.114.114-.456h-.341a3.612 3.612 0 00-.456-1.822 6.656 6.656 0 01-.683-1.708l.342-.683-.114-.114.114-.683-.456-.114h.342v.228h.228l.4-.4a.472.472 0 01.512-.057l.8.114a1.016 1.016 0 00.569-.626c.076-.265.151-.512.228-.74l-.114-.114 1.025-.228v.341h.228l.57 1.594-.114.114.341.114.114-.114-.114-.114.114-.114-.228-.683.455.227.228-.227-.228-.684v.114l.228.8-.114-.114-.228.455.114.228-.114.683.341.569.455.341.114.456h-.117l-.455-.684-.455-.114-.228.341.341.456-.114.114.455.456-1.025-.8-.114.228.114.227v-.227h-.228l-.114.114q.8 2.848 1.537 5.75t1.423 5.864l-.114.114.456 1.48.114-.341v.341h-.227v.342a39.3 39.3 0 01.683 4.042 38.851 38.851 0 00.683 4.042l-.114.228.341 1.025.114-.114v.114l-.228.114.342.683-.114.684.114.114.114-.114.114.341h-.228v.341h.228v.114l-.114.342.114.227-.114.114.228.114-.114.57.227.683.115-.114.227.683h-.227v.461h.227l-.114.569h.342l-.228.228.342.456.341.114.114-.114a1.068 1.068 0 00.911.285q.569-.057 1.025-.057l.114-.114.456.114.683-.228v.228h.683l.114-.114-.227-.114v-.114l.341-.114.341.228.115-.114.114.114.456-.341.114.114.342-.114-.228.228.456.342.455-.228-.228-.228-.114.114-.114-.228.114-.228h.228l.114-.342.228.114v.456h.341l.57-.228.114-.342.569-.455-.455-.114.228-.342-.114-.114.341-.342h-.114l-.114.114.455.341.114.684h.342l.455-.456a.516.516 0 00.114-.57l-.114-.114-.455.57v-.228l.228-.569h.227l.114.114.114-.228h.114l.114.228.228-.228-.114-.114h.114l.114.114.114-.228-.227-.341.341-.683-.114-.228.114-.114-.228-.456-.227.114-.228-.114.456-.455-.227-.228-.342.228h.114l.228-.342.114.228.455-1.025-.114-.227.342-.114v.227l-.114.114.114.456-.114.228.228.456.342-.57-.115-.114-.114.114.114-.114-.114-.114.114-.228-.114-.114h.228l.114-.341.342.114-.114.114.114.114-.114.114.114.114h-.228l-.114.456.114.228h-.227l-.115.8h.228v.114l-.228.114.228.114-.114.342h.455q.113-.568.227-1.2a6.208 6.208 0 01.341-1.2l-.114-.227.228.114.114-.114-.114-.342.114-.228-.114-.114-.114.114.114-.114-.114-.114.114-.114.114.114-.114.114.341.114.228-.228-1.367 3.871.228.228 1.366-2.505-.114-.114.228-.228-.114-.114.114-.228h.114l.114.228-.114.228.114.228-.227.456.342.569.456-1.367-.114-.114.341-1.139-.114-.228.114-.114-.114-.114.57-.114v.569l-.114.57h.228l.114-.114.114.342v-.114l-.114-.114-.114.228-.228-.228-.114.228.228.227-.459 1.716h.228l-.228.341.114.114h-.341l-.57 2.619.115.114.227-.57v.456l.57.114.456-.342-.114-.114.341-.114-.114-.114h.228l-.115.342.115.114-.115.114.115.114-.228.228.456.114.114-.8-.114-.228.46-1.252.114.114-.228.683.114.114-.455.911.114.569-.114.456.114.114-.114.114.228.228a1.3 1.3 0 00.4-.683 4.972 4.972 0 00.057-.8h-.114l.114.114.228-.684v.684l-.115.228.115.114h-.228l-.114.683h.342l.114.911.227-.341-.114-.114.114-.114.115 1.139-.115.341.456.683.228-.114.228.57h-.228l-.455-.228-.228.456 1.025.911v.115h-.125l-.911-.228v.342h.228v.114l-.342.114.228.341-.228.228.342.683h-.228l-.911-.228v.228l-.456.228-.342-.228-.114.228.342.57.114-.115.114.115-.114.114-.8-.342-.228.228.114-.228-.455-.228v.34l.114.115-.342.341.228.683-.342.114-.342-.455-.683-.114-.114.455h-.228l-.683-.341v.57h-.8v.342l.114.114.125-.224h.114v.228l-.227.114-.683-.227v-.228l-.911-.342-.228-.341-.342.114-.456-.228-.114.114-.569-.114-.114.114-.456-.114-.455.228-.114-.114-2.619.911.114.341-1.025.456.114.227-.114.114-.341-.114-1.025.342-.456.455-.227-.114-.228.114-.114-.114-.228.455.114.114zM91.391 4.896v-.114l.114.114zm3.074 16.511v-.228l-.114-.114-.114.341.114.114zm.8-17.308l-.228-.114-.114.114.228.114zm0-1.594l-.114-.228.228.114.114-.114v.114zm.683.456v-.342h-.228v-.114l.342.114v.114zm.114 1.367v-.114h.114zm1.366 9.565v-.228l-.114-.8v.576zm1.025 6.035v-.457l-.114-.228v.114zm2.047 26.413l-.114-.114-.114.114.114.114zm.342-23.571l-.342-.114v-.115l.456.228zm2.278 1.708v-.456l-.114-.114-.228.114v-.114l.114-.341-.114-.114-.114.114.114-.114-.228-.114h.228v-.338l-.114-.114.342-.114v-.341l.341-.114-.114-.456.114-.114-.341-.228-.911.683-.8-.342-.228.228.114-.342-.114-.114-.227.114-.114-.342.227-.114-.342-.114v-.227h.115l.114.114.114-.228h.228l.114-.341-.114-.456.569-.114v-.341l.455.227v-.227l-.114-.228h.228v-.342l-.115-.114.115.456h.341l.456-.228.569-1.252.114.114.228-.456h.227v-.228l-.114-.114-.114.114v-.114h.114l.114.114.228-.228-.114-.114.114.114.228-.569-.114-.114.57-.57h.227l.57-1.48-.114-.114.228-1.025-.456-1.252h.228l.341.342.115-.342-.115-.114.57 1.025.23-.224.228.228.114-.8h-.228l-.114.114v-.114l1.139-.57.114.114-.114.114.228.114.341-.227-.228-.341.114-.114.228.341.227-.569h.228v-.228l-.114-.228h.114l.114.341-.114.228.342.228.455.569.114.228.114-.114.115.114-.115.456 1.025.569.228-.456.569-.228.114.114a3.245 3.245 0 011.025-.513 3.947 3.947 0 011.139-.171v.228l-1.025.911-.228-.455h-.228l-.569.683.683.228.114-.114a4.342 4.342 0 011.253.171 2.427 2.427 0 011.024.626l.683-.228.114.341-.114.114.114.114-.228.341-.114-.228-.683.8.342.114.341-.227-.114.455-.342.228-.227-.228-.456.228-.114.342-.683.683-.228.114v-.228l-1.252-.114-.114.114-.456-.341-1.138 1.252.455-.683-.455-.341-.341.455-.684.228-1.138 1.818-.455.342-1.367 2.049-.57.228.115.114-1.139.683.114.114-.228-.114-.114.114.114.114-.911.569-.227.569h-.228v.228zm-2.278-3.872v-.114h.114zm.342.911v-.114l-.114-.114-.227.341.114.114zm.569 1.252l-.341-.114.683-.227v.113zm1.708-.911l-.114-.114-.114.114.114.114zm.228.228l-.114-.114-.115.114.115.114zm.8 1.138l-.341-.341-.684.456v.228l.228.227.8-.341zm-1.025 2.163v-.114h.228zm.342-3.644l-.114-.114-.114.114.114.114zm.8 2.961l.114-.228.114.114.114-.114zm.342-8.313l-.114-.114-.114.114.114.114zm0 3.189l-.114-.114-.114.114.114.114zm1.481-8.654l-.228-.114h.115zm.683.342l-.456-.342h.228l.228.114.341-.228h-.114l-.228.228.114.114zm-.456 12.639v-.114l.342-.341zm.456-.683l.114-.228h.114v.114zm.683-.8l-.342-.228h.115l.114.114.341-.456.342-.341v.114zm.114-11.729l-.341-.114h.455zm-.114 34.275v-.114h.456v-.215h.22v.115zm.341-33.364l-.114-.114-.114.114.114.114zm1.594 23.343l-.114-.114-.114.114.114.114zm.228.456l-.115-.114-.114.114.114.114zm-.115-25.165v-.114h.115v.114zm.684 7.857v-.106h.114zm.114.8v-.114l.114-.114zm.228 12.3v-.114l.114-.114-.114-.114.227-.228v.114zm.114 2.505l.114-.114-.114-.114.114.114.114-.228v.114zm.228.911l-.114-.114-.114.114.114.114zm.227 9.679l.115-.341-.456-.341-.114.682.342.115zm.333-12.181v-.114l-.114-.114-.114.341.114.114zm0-14.234l.341-.114h-.228zm.228 15.714l-.114-.114-.114.114.114.114zm0 .342l-.114-.114-.114.114.114.114zm.228-1.594v-.114l-.114-.114-.114.228.114.114zm.114-.228v-.114l.114-.114-.342-.114v.341l.114.114zm.341.8v-.114l.115-.114-.455-.228-.228.228.342.456zm-.227.569l-.228-.227-.114.341h.228zm.114-.114l.114-.228-.114-.114-.341.228zm-.227-3.758l.114-.114v.114zm.227.57l.114-.114-.114-.114.114-.228h.115l-.115.228.115.114zm.8 4.441l.455-1.025h-.227a4.335 4.335 0 00-.4.456.588.588 0 00-.057.569l.114.114zm.455-17.763l-.114-.114-.114.114.114.114zm.8 17.763l.114-.227-.114-.114.114-.456-.114-.114-.342 1.025h.228zm.228-1.139l.114-.455-.114-.114-.114.114-.114-.114-.114.455.228.228zm0-1.252l-.114-.114-.114.114.114.114zm.114-.114l-.114-.114-.114.114zm.114.8l.115-.114-.115-.114.115-.456-.115-.114-.227.8.114.114zm.115-3.644v-.229l.227-.114v.227zm.227 3.758v-.114l.115-.342-.115-.114-.227.57.114.114zm.342 3.644l.228-.911-.683-.342-.114.114.114.114-.114.911.114.114.114-.114zm-.114.114l-.228-.114-.114.114.228.114zm0-4.441l-.114-.114-.115.114.115.114zm.114-.114v-.12l-.114-.114-.114.228zm.114-.341v-.114l-.114-.114-.114.228.114.114zm.228-.911v-.114l-.114-.114-.114.228.114.114zm-.228 2.163v-.114h.114zm1.139-19.471l-1.025-.456v-.234l1.139.684zm-.346 20.262v-.114l-.114-.342v.114l.114.114.115-.228.341-.114-.114.114.114.228zm.115 2.163l-.115-.114-.114.114.114.114zm-.115-3.53v-.114l.115-.114zm0 1.936v-.114l.115.114zm.228-1.367v-.114l-.114-.114zm.342-2.163l-.114-.114.114-.114zm0-.456v-.569l.227-.228v.114l-.227.456.114.227zm.23 4.67v-.228l.114-.114v.114l-.114.113.114.114zm.114 7.857v-.114l-.114-.342.114.114.114-.114v.228zm0-9.793v-.114l.114-.114-.114.114.114.114zm.456 1.139v-.114l.342-2.163h.114v.114zm2.05 5.922l-.684-.342.228-.341.227.569h.342v.115zM196.812 48.737a3.387 3.387 0 01-1.31-.968q-.512-.626-1.082-1.309v-.228h-.228l-.227-.569-.342-.114q-1.595-2.96-3.245-5.978t-3.131-6.206h-.228l-.114.114.114.228-.114.114.114 2.391-.114.228.114.114-.114.341h-.114l-.342-.228-.114.456h-.228l-.114.8.114.114-.114.455.227.228-.342-.114a3.1 3.1 0 01-.114.854 1.711 1.711 0 01-.455.74l.114.115-.227.569-.228-.114-.342.455.342.227v.115l-.684.341.115.115-.8.911-.911 1.139h-.227l-.114.456-.683.683-.342-.114v.228l-.455.228-.114-.114.455-.114v-.347h.227l.342.114v-.227l.228-.114-.115-.228.456-.228.227-.569h.228l.342-.8.341-.114v-.342h.342l.228-1.025.342-.227.341-.8h.228a9.366 9.366 0 00.57-1.424 3.511 3.511 0 00.114-1.537l-.57-.455-.114.57h-.114l.114-.456h.228v-.228l-.114-.228.228-.683h.228v-.455h-.228l.114-.57-.341-.569-.227.911.114.114.114-.228h.114v.114l-.57.341.114.228-.57.341-.224 1.374.114.342h-.114l-.114-.115-.456.8.114.114h-.227l-.342.683-.456.342-.114-.114-.228.114-.114-.114-.115.227-.8.456-.341.456.114.114h-.228l-.114-.114-1.139.8-.114.227-.228.114-.114-.114a4.1 4.1 0 01-1.2.854q-.627.285-1.309.626l-.114-.114-1.481 1.138-.114.342-.342.115.114-.115-.228-.114-.341.228.228.114v.108l-.114.228-.342.114-.114-.114-.342.569h-.228l-.114.455v-.114l.342-.8-.114-.114h.227l.228-.57-.115-.114 1.594-1.936a5.6 5.6 0 001.31-1.651 4.346 4.346 0 011.309-1.537l.114.456q.342-.456.683-.968a3.031 3.031 0 00.455-1.2l-.096-.104-.228.342v-.115l.115-.342h.341l.456-1.708-.114-.684.114-.114-.114-.114.114-.8-.114-.114.114-.228-.114-.114.114-.228-.114-.455-.342-.228-.683-.228q-2.05 1.139-4.213 2.163t-4.213 2.05a4 4 0 01-.911 1.2 9.169 9.169 0 00-1.025 1.082h-.342l-.228.684.114.8h.227v.114l-.114-.114-.228.114-.114-.114-.114.342.114.682-.114.115.114.227-.228.342.114.114-.114.114.341.8h-.114l-.228-.115-1.025-2.391-.341.8.114.115.114-.115v.115l-.114.114.114.114-.228.114.228.115-.228.341.114.228-.227.341-.228-.114-.227-.342-.115.342.228.8-.228-.228-.114.342.114.114-.227.8h-.114l-1.367-2.049-.342-.114-1.025.456v.342l-2.049 1.139v.227q-1.481.8-2.961 1.651a5.394 5.394 0 01-3.415.626 2.049 2.049 0 00-.513-.17c-.19-.038-.284-.171-.284-.4l1.48-1.253.115.114q1.935-1.025 3.871-2.221t3.872-2.22l-.455-.911.114-.456-.342-.227-.114-.684.114-.114-.114-.683.228-.911-.115-.456.115-.228a11.044 11.044 0 01-.342-1.765 6.39 6.39 0 00-.456-1.765l.114-.456-.114-.114.114-.227-.114-.57h-.456q-1.367.683-2.847 1.252t-2.96 1.025l-.114-.114-.8.342q-.342 2.164-.513 4.441t-.284 4.441l.114.114-.114.114.227 1.48-.114.115.228.114v.228l-.228.341.114.114q-.341.569-.626 1.082a3.682 3.682 0 00-.4 1.2 5.741 5.741 0 00-.8-2.5 5.725 5.725 0 01-.8-2.505l.114-.57-.114-.569.342-1.594-.115-.456.342-2.619-.114-.341.227-.8-.114-.114.114-.228-.114-.114.341-2.049-.114-.114a7.923 7.923 0 00.285-1.652 7.878 7.878 0 01.285-1.651l-.114-.228.456-2.733-.114-.114q.341-1.593.626-3.245t.626-3.359l-.114-.114.114-.114-.228-1.025.114-.228-.228-.8.228-.228-.228-.911.342-.114.114-.57h.228v-.586l.341-.228v-.569l-.114-.341h-.227v-.114l.114-.911-.114-.228v.111l.114.114.341-.228.114.456h.342l.455-.569.114.114a13.656 13.656 0 01.57-1.765 13.062 13.062 0 01.8-1.651l1.708-.683v.227h1.253l.228-.114.456.228.114-.114.114.114a1.955 1.955 0 01.968-.4 7.228 7.228 0 00.968-.171l1.708.8.341 1.252a4.483 4.483 0 00-.569 1.025 6.5 6.5 0 00-.341 1.139h.228l.227 1.708-.114.228.114.57-.114.114.342 1.936-.114.228.341 1.936-.114.456h.228l.455 3.416-.114.114.227 1.708-.114.114a.461.461 0 01.227.569.516.516 0 00.115.57l-.115.455h.228v.114l-.228.342.228.114.114.456-.114.228.114.228-.114.114.342.57-.114.228.569 3.416-.114.228.228.569-.114.114.228.455-.114.342.114.227-.114.57.114.114.227-.114.228.683-.114.341.342.114.228-.114v.114l-.228.228.114.228-.228.683.342.684.341.114 2.5-1.708-.8-.114-.342.114-.227-.114v-.228l-.8-.341a1.029 1.029 0 01-.456-.854 2.148 2.148 0 00-.227-.968l.114.114.455-.8.342-.114.114.8a52.274 52.274 0 004.9-2.79q2.391-1.537 4.782-3.131l-.114-.114.342-.455.114.341h.341l.57-.8-.115-.57.115-.114-.228-.228.114-.342-.114-.341.114-.114-.341-.455.114-.456-.114-.228.114-.114-.114-.114.114-.455-.456-2.847-.456.911.228.114v.114l-.114.228-.342-.114.228-.114-.114-.341.114-.114-.114-.228.57-.455v-.57l-.114-.228.114-.683-.114-.114.114-.114-.114-.114.114-.342h-.327v-.228l.114-.227-.114-.114-.228.569h-.227v.342h-.115v-.224l.228-.114-.114-.228.114-.227-.114-.228h.114l.114.114.114-.57-.114-.114-.227.341v-.114l.114-.57-.114-.114-.115.114-.341-.227-.683 1.025-.228-.456-.455.8.228.455-.57.114-.227.569.114.228-.114.228-.115-.114a6.731 6.731 0 00-.683 2.448q-.115 1.311-.341 2.562l.341.114.227-2.05v.684l-.227 1.367-.228.114.114 1.025-.114.114.114.114-.114.8h-.228l-.57 2.05h-.23l-.228-.228-.114.228v-.124l.114-.114-.112-.116.228-1.139-.228-.228-.455 1.139-.57.228-.227.911-.114-.342h-.342l-.114-.455.114-.114-.341-1.48.114-.114a6.143 6.143 0 01-.285-1.537q-.057-.853-.057-1.651l.114-.114-.227-1.48.114-.228-.114-.114.114-.228-.114-.114.227-.911-.114-.341.569-2.391-.114-.456.456-.456-.114-.455.455-.342.114-.342-.114-.114q.683-1.367 1.253-2.79a7.58 7.58 0 011.708-2.562l.456-.114v-.456h.114l.114.114.114-.456-.456-1.025.115-.114-.342-.57.227.228.115-.455-.342-.114v-.456h-.228l.115-.228-.456-.683.114-.456-.8-.57-.115.684-.112-.109-.114.228.227.456-.341-.456h-.228v-.114l.569-.228v-.686l-.227-.57.455-.456.114.114.228-.57-.456-.227.456.227.227.456-.456.342v-.228h-.342l-.114.341.911.8.456-.341c-.077-.227-.058-.379.057-.456a3.889 3.889 0 01.4-.228l-.228-.341h.57l.683.456.115-.228.8-.228.8.341.341-.114.341.114 1.025-.683a4.284 4.284 0 00.626-1.423 3.229 3.229 0 01.627-1.31l.911-.456.228.456.569.114.684-.569-.114-.114-.228.228V.112l.683-.114.114.114-.114.114.8 1.594-.115.911.115.8-.115.114.115.456-.115.228-.227-.342h-.456l-.341.456.114.114-.227.341.114.228-.228.911.228.456.114-.114.114.228-.683.456.114.228-.114.8.227.341.342-.114a2.145 2.145 0 01.171-.854 4.538 4.538 0 01.4-.74l-.114-.114.455-1.252v.57l-.569 1.594.114.57-.114.456h.569l.115-.114-.342-.456.227-1.025h.115l.114 1.252-.114.342.569.341.57-.228.569.228.911-.456.115.114.227-.114.114.114.114-.114 2.05.456.342-.228 1.366.8.228 1.252q-.228.456-.456.854a1.7 1.7 0 00-.227.854l.114.114-.227.341.114.228-.114.114.227.114.8 2.163-.114.341.321.444-.114.114.114.456h.227l-.114.228.114.114-.114.114a16.713 16.713 0 01.569 1.822 8.859 8.859 0 00.683 1.822l-.114.114 1.139.341.228-.114.8.569.114.456.911.228.114-.114.114.114.342-.114.114.114.455-.114.114.114-.342.114-.341.57a9.989 9.989 0 00-1.708 1.082 10.5 10.5 0 00-1.481 1.423q-1.366.456-2.79.968a13.432 13.432 0 00-2.675 1.309l-.115.228-.341.114-.683-.228-.911.456-.228 1.139-.114-.228-.115.114v-.114l.115-.456h-.228l-.342.456.228.228-.114.114-.115-.341.228-.342-.456-.227v.8l.114.114-.341.342.114.228-.114.569h.683l.114-.456-.227-.341.341-.342v.114l-.114.114.456.8.114-.114.114.228.228-.114v.114l-.114.228.57.228q.909 1.823 1.822 3.7t1.936 3.7l.114-.114 2.164 3.871.227.114v.341h.228l.227.342.115-.114a3.006 3.006 0 00.512 1.252q.4.57.741 1.139l.341.114.455.455.683 1.025.57.227-.114.342h.227l.114.228-.114.342.114.227zm-45.662-8.768v-.456l.114-.114-.114-.114a1.558 1.558 0 00.114-1.025.945.945 0 01.228-.911l-.228-.341.456-2.278-.114-.911.114-.114-.114-.114.227-2.391-.114-.114-.342 1.594.115.114-.342 1.936.114.228-.339 1.821.114.342-.227 1.138.114.114-.114.114.114.228-.227.8.341.569zm-.114.569v-.114l.114-.228-.114-.114-.227.456.114.114zm3.3-9.793v-.114l.342-.114.227.114a7.3 7.3 0 001.993-.512 12.187 12.187 0 011.993-.626l1.252.228v-.57l-.114-.227.114-.8-.114-.114.114-.683a5.4 5.4 0 01-.626-1.765q-.171-.968-.285-1.993l.114-.228-.342-.684.114-.341-.455-1.594.114-.114-.456-1.252.114-.114-.114-.114.114-.456-.114-.228.114-.114-.455-.114v.228l-.228.114.114.342-.456.341-.341 1.025-1.025.228a1.032 1.032 0 00-.342.74 1.314 1.314 0 01-.227.741l.114.114-.455 1.138.114.342-.114.227h-.228l-.227 2.505.114.228-.342.228-.569 3.871zm-.228.114l-.114-.114-.114.114.114.114zm10.931 4.669V35.3a.709.709 0 00.228-.513v-.508l-.683-.569v.341l.114.569h-.228v.228l.228.57zm.115-17.536v-.113l-.115-.114.115-.114-.115-.341.228-.114-.228-.8.115-1.138-.115-.8.115-.114v.342l-.115.456h.228v.228l-.114.114.227 2.505v-.456l-.114-.114zm.114-3.871l-.114-.228.227-.456v.114zm.228-4.669v-.228l-.228-.228.342-.455-.342-.456h.114l.228 1.025zm-.228 3.416v-.114l.114-.228v.228zm0 7.971v-.46l.114.114zm.114 1.253v-.113h.115v.114zm.115-11.615l.114-.114v.116zm.114 1.025l-.114-.114h.114zm0 8.768v-.683l-.114-1.139v.569zm-.114 3.3v-.228l.114.114zm.114 1.367v-.228l.227-.114-.114-.342.114-.114.114.683zm.114 1.142v-.456l.341-.228.114.114h-.228l-.114.569zm.341.911v-.456l-.114-.228.114-.114.114.569zm.114.911l-.228-.341h.114l-.114.114zm0 1.252v-.683l-.114-.228.114-.114.114.911zm.683 9.337l.114-.228-.342-1.138h-.341l-.342.227.456 1.139.342.114zm-.569-7.06v-.114l.227-.114v.228l-.114-.114zm.455 3.644v-.114h.114zm.569 5.239l.114-.115-.227-.341-.114.456.114.114zm.228.8v-.234l.114.227zm.342.911v-.115l-.228-.341h.114l.228.456zm.227.569l-.114-.114h.114zm.342 1.252l-.114-.227v.114zm1.252 3.985v-.569l.228-.114-.228-.342h.341l-.114.227.114.228h-.225zm.114.455l-.114-.114h.114zm1.025-.8v-.114l.114-.342h.228l.227-1.024h-.342l-.114.114-.342-.114-.341.227.114.114h-.114v-.114l.341-.455.115.114.114-.455h-.223l.115-.228h.114l.114.455.683-.683-.114.341h-.228v.228l.114.114-.227.114.455.114.114-.114.114.114zm-.57.115v-.121l.114-.114-.114-.114.114.114zm.683-2.733v-.228h.228l.227-.456-.342.684zm.57 1.139l-.114-.115-.114.115.114.114zm.683-.342l-.227-.228.456-.911.114.114.228-.114h-.228v.342l.114.114.456-.456v.114zm.228-.455l-.114-.114-.115.114.115.114zm.114-.114l-.114-.114-.114.114zm-.227 1.025v-.114l.227-.115-.114-.114.114.114zm.683-2.05l.114-.228v.114zm.228-40.993v-.114h.114zm.227 3.985l-.114-.342v.114zm.456.228v-.111l-.341-.683.114-.114.228.57.114-.456h.114l.228.8zm.228-.228l-.114-.114-.114.114.114.114zm.341 1.48v-.343h-.228l-.114.114.114-.228.341.228zm0-3.53l-.114-.114-.114.228.114.114zm.114.228l-.114-.114-.114.114.114.114zm0 39.285l-.114-.114-.114.114.114.114zm.115-22.2v-.576l.114-.114zm1.708-5.01l-.114-.114-.115.114.115.114zm0 21.977l.569-1.252h.228l.342-1.367h.114v.228l-.8 2.05zm1.252.683l-.114-.114-.115.114.115.114zm.114-19.472v-.57h-.227l.114-.341h.228l-.228.341.342.114v.114l-.228.456zm-.227 24.6v-.124l.227-.342v.115zm.227-19.472v-.114l.114-.342-.114-.114.114-.114-.114-.114.114-.683h-.228l.228-.228-.114-.114.114-.114-.228-.456.114-.114-.114-.114.342.114v.228l-.114.341.114.456-.114.114.114.114-.114.228.114.114.114-.114v.114l-.228.455.228.228zm.23-8.323l-.114-.114-.114.114.114.114zm0 3.871l-.114-.114-.114.114.114.114zm0 6.149l-.114-.342.341-.114h-.227zm-.114 7.857v-.114l.114.114zm0 9.224l.683-.57-.341.114v.226h-.228v.228zm.456-1.367l.342-.227v.114l-.115-.114zm.342-.683l.227-.228v.114zm.911-17.536l-.114-.114-.114.114.114.114zm.456-2.05v-.228l-.342-.569-.227.683.114.114.114-.114zm-.228.57v-.228l-.114-.114-.114.342.114.114zm.114-.342l-.114-.114-.114.114.114.114zm1.025-1.594l.114-.114-.456-.114v.342h.228zm0 .57l.114-.456h-.341l-.114.114.114.114-.114.342h.228zm.341 22.66l.114-.456h.115v.342zm.569-23.115l-.114-.114-.114.114.114.114zm.683 18.106v-.455l.114-.228-.114-.114-.569.911h.227zm.911-19.7l-.114-.114-.114.114.114.114zm1.822 4.555v-.456l.342-.114v.228h.227l.228-.456-.342-.683-.227.228.114.114h-.114l-.115-.456-.114.228a7.815 7.815 0 00-.569-2.334 21.932 21.932 0 00-1.025-2.107h-.228l-.114.114.114.114-.114.114.228.456-.114.341.114.114-.114.114.57.228.114.228-.114.456.114.227h-.227l.114-.455-.342-.342-.114.342.114.114-.228.683.228 1.936-.114.114a4.329 4.329 0 01.171.74.87.87 0 00.4.626zm-.688-7.744l-.569-1.253-.228.456.341.911h.342zm-.8 3.074v-.114l.114.114zm.8-2.733v-.114l-.114-.114-.114.228.114.114zm.8 16.625l.342-.342a.771.771 0 01-.227-.569v-.683h-.228l.114-.569v.455h.342v-.341l-.227-.683-.115.342-.114-.114-.228 1.025.114.228-.341 1.708.114.114.228-.456zm-.228-15.826l-.114-.114-.114.114.114.114zm.342.683l-.228-.569h-.228l-.114.114.455.683zm-.114 15.717l.115-.456h-.342l-.228.456.341.114zm.115-10.134l-.115-.114-.114.114.114.114zm.114-5.352l-.114-.114-.115.114.115.114zm.114 14.12l-.114-.114-.114.114.114.114zm1.139 3.3v-1.369l.114-.341-.341-.569.114-1.367-.683-.8-.114.114.227 1.367-.114.114.228.911-.228.911.228.455.227-.57h.114v.228l-.455.456.114.114-.228.569.228.342.114-.228h.114l.228.228zm-.569-4.782l-.114-.114-.114.114.114.114zm10.587 15.256a1.707 1.707 0 01-.684-.569 4.525 4.525 0 00-.569-.683l-.684-1.594h-.227l-.228-1.252h-.228l-.341-.456.114-.114-.228-.456-.341-.115.114-.341-.342-1.025-.341-.114h.341v-.228l-.341-.342-.114.228h-.115l-.911-1.708.114-.115-.227-.114-.342-.569.114-.456-.456-.114v-.456l-.455-.341h.228v-.342h-.228l-.8-1.367-.114.114.114-.342h-.223l.114-.114-.228-.228.115-.114-.57-.683-.114.114v-.112l.114-.114-1.252-2.05-.228-.114v-.222l-.341-.114.227-.228-.683-.683h.114l1.936 1.253h-.228v.227q.683 1.14 1.252 2.335a11.985 11.985 0 001.366 2.22l-.114.228.456.342.228.569h.227l1.822 3.3.114-.114.57.569-.114.114 1.481 1.822.341.227-.114.114.227.683.455.456a3.891 3.891 0 01.855 1.253 5.159 5.159 0 00.74 1.252l-.341.683h-.115l-.114-.227-.228.227-.228-.227zm-10.134-9.108v-.342l.114-.114v.114zm.911-5.694l-.114-.228.228.114v.108zm.569-2.163l-.114-.228v.114zm2.164 6.49v-.114l-.11-.119zm2.277-14.917v-.456l-.114-.341-.683-.114v.114l.228-1.025-.455-1.252.114-.114-1.253-3.3-.114.456.228.569-.114.342.228.8-.114.114.228.341.114-.228v.456l-.114-.114-.114.228.227.342.114-.228.115.341-.115.114.115.342v-.228l-.228-.341a1.307 1.307 0 00-.227.74 2.327 2.327 0 01-.114.741l.114.114.114-.228.342-.114.114-.342.228.57-.228.683.114.456h-.227v.228l.114.114.569-.114.114.569.455-.228.114.114zm-1.594-1.253l.228-.455-.456-.114v.228l-.228.114.114.342h.227zm.684 1.139l-.114-.114-.114.114.114.114zm1.025 7.06v-.228l.114-.227-.228-.911h-.227v-.228l.342-.227a.847.847 0 01.4.569 4.977 4.977 0 01.057.8zm.8 12.185l-.114-.114-.114.114.114.114zm2.277 9.565l-.114-.115h.114zm3.645-1.367l-.115-.114.115-.342-.115-.114-.114.227h-.114l-.342-.569.227.455h.228l.228-.114v.342l-.115.114zm.114.8v-.228l.341.114zm.114-.456v-.114l.114.114zM83.487 55.674l2.638 4.652h.015v-3.842c0-.53-.059-.573-.6-.573v-.235h1.47v.235c-.492 0-.551.044-.551.573v4.7h-.455l-2.8-4.9h-.014v4.027c0 .529.051.573.566.573v.235h-1.47v-.235c.529 0 .58-.045.58-.573v-3.827c0-.544-.044-.573-.588-.573v-.235zM90.562 58.393c0-1.984.941-2.83 2.286-2.83 1.456 0 2.286.978 2.286 2.83 0 1.874-.823 2.829-2.286 2.829-1.749 0-2.286-1.344-2.286-2.829zm1.132-2.014a3.182 3.182 0 00-.492 2.014 3.479 3.479 0 00.485 2 1.5 1.5 0 002.308 0 3.479 3.479 0 00.485-2 3.192 3.192 0 00-.485-2.014 1.42 1.42 0 00-1.147-.53 1.468 1.468 0 00-1.154.53zM100.561 55.674a2.231 2.231 0 011.44.352 1.211 1.211 0 01.5 1.051 1.449 1.449 0 01-1.345 1.426l1.08 1.852c.28.463.389.522.735.522v.235h-.978l-1.44-2.521h-.676v1.713c0 .537.036.573.581.573v.235h-1.779v-.235c.536 0 .581-.045.581-.581v-3.812c0-.53-.045-.573-.581-.573v-.235zm-.492.294c-.176 0-.191.066-.191.463v1.859h.522c.882 0 1.463-.309 1.463-1.227 0-.618-.353-1.1-1.316-1.1zM108.452 55.99v4.314c0 .537.029.573.69.573v.235h-1.992v-.235c.654 0 .692-.036.692-.573V55.99h-.9c-.434 0-.485.036-.646.918h-.272l.176-1.234h3.888l.169 1.234h-.272c-.162-.889-.221-.918-.64-.918zM118.477 55.909c-.544 0-.587.044-.587.573v3.821c0 .529.044.573.587.573v.235h-1.71v-.235c.478 0 .515-.045.515-.566v-1.881h-2.521v1.881c0 .522.036.566.514.566v.235h-1.712v-.235c.536 0 .581-.045.581-.573v-3.819c0-.53-.045-.573-.581-.573v-.235h1.714v.235c-.478 0-.514.036-.514.558v1.661h2.514v-1.656c0-.529-.036-.565-.515-.565v-.235h1.715zM125.392 61.112h-3.461v-.235c.536 0 .58-.045.58-.573v-3.82c0-.53-.044-.573-.58-.573v-.235h3.255l.235 1.154h-.287c-.2-.831-.272-.86-.683-.86H123.4c-.25 0-.272.052-.272.36v1.8h.992c.338 0 .382-.066.382-.743h.287v1.808h-.287c0-.713-.044-.764-.382-.764h-.992v2.053c0 .294.059.33.213.33h1.315c.427 0 .5-.051.7-.874h.287zM130.923 55.674a2.231 2.231 0 011.44.352 1.211 1.211 0 01.5 1.051 1.449 1.449 0 01-1.344 1.426l1.08 1.852c.279.463.39.522.735.522v.235h-.973l-1.44-2.521h-.676v1.713c0 .537.036.573.581.573v.235h-1.778v-.235c.536 0 .58-.045.58-.581v-3.812c0-.53-.044-.573-.58-.573v-.235zm-.493.294c-.176 0-.191.066-.191.463v1.859h.522c.881 0 1.462-.309 1.462-1.227 0-.618-.353-1.1-1.316-1.1zM137.739 55.674l2.638 4.652h.014v-3.842c0-.53-.059-.573-.6-.573v-.235h1.47v.235c-.493 0-.551.044-.551.573v4.7h-.456l-2.8-4.9h-.014v4.027c0 .529.052.573.566.573v.235h-1.47v-.235c.529 0 .581-.045.581-.573v-3.827c0-.544-.044-.573-.588-.573v-.235zM152.534 57.452v1.808h-.279c0-.705-.074-.764-.4-.764h-.948v1.808c0 .537.036.573.7.573v.235h-1.9v-.235c.536 0 .58-.045.58-.573v-3.82c0-.53-.044-.573-.58-.573v-.235h3.288l.242 1.168h-.286c-.191-.808-.265-.875-.676-.875h-1.1c-.249 0-.271.052-.271.375v1.859h.941c.323 0 .4-.088.4-.749zM156.572 60.877c.6 0 .639-.045.639-.573v-3.82c0-.53-.036-.573-.632-.573v-.235h1.881v.235c-.6 0-.632.044-.632.573v3.821c0 .529.036.573.632.573v.235h-1.889zM165.615 59.9l-.257 1.212h-3.461v-.235c.537 0 .581-.045.581-.588v-3.805c0-.53-.044-.573-.581-.573v-.235h1.786v.235c-.551 0-.588.036-.588.581v3.969c0 .316.044.352.243.352h1.272c.426 0 .507-.059.712-.911zM173.909 55.674h1.227v.235c-.551 0-.588.044-.588.573v3.821c0 .529.044.573.588.573v.235h-1.749v-.235c.522 0 .551-.045.551-.573V56.46h-.015l-1.867 4.688h-.228l-1.94-4.7h-.015v3.859c0 .529.029.573.537.573v.235h-1.434v-.235c.537 0 .573-.045.573-.573v-3.843c0-.515-.036-.551-.573-.551v-.235h1.169l1.911 4.578h.022zM178.846 59.775c.227.911.58 1.146 1.264 1.146a1.044 1.044 0 001.1-1.051c0-.661-.375-.9-1.161-1.389a3.916 3.916 0 01-1.139-.9 1.463 1.463 0 01-.213-.749c0-.529.367-1.264 1.595-1.264a2.937 2.937 0 011.132.2c.037.294.1.721.162 1.08l-.28.051c-.154-.779-.309-1.029-1.043-1.029a.887.887 0 00-.992.838c0 .551.3.757 1.059 1.249a4.375 4.375 0 011.183.875 1.487 1.487 0 01.3.911c0 .831-.639 1.485-1.763 1.485a3.939 3.939 0 01-1.264-.228 8.5 8.5 0 00-.22-1.139z"/><g><path class="aa" d="M4.252 1.29H0v17.881h4.251V5.984h16.962v52.768H4.252V27.534H0V63.47h25.307V1.29H4.252zM48.551 1.29H27.495v62.18h25.307V45.589h-4.251v13.188H31.589V6.008h16.962v31.219h4.251V1.29z"/></g></symbol><symbol viewBox="0 0 253.206 391.432" id="brand-logo-ver" xmlns="http://www.w3.org/2000/svg"><path d="M66.151 376.308l-.116-.233.116-.584h-.35l.117-.117-.117-.233.117-.7-.467-.35-.583-.7-.35-1.05.117-.583-.234-.7h.234v-.233l-.117-.35.117-.351a3.544 3.544 0 00-.642-.7.768.768 0 01-.291-.817l.116-.35c-.233.078-.389.039-.466-.116l-.234-.467v-.35l.117-.35.467-.116-.117.349a1.425 1.425 0 00.816.234 2.61 2.61 0 01.817.116l1.05-.35.466.117.934-.233.35.116q1.4-.35 2.741-.757t2.741-.875v-.232h.351l.233-.467-.117-.117.117-.116-.467-.233-.35.233.7-.7.933-1.05.234-1.05.116.116-.116.351.233.583.466-1.05-.233-.116v-.467l.117-.7-.114-.117.117-.117-.117-1.05.117-.116-.117-.351.117-.116-.117-.117.117-.117-.117-.233.117-.233.116.349-.116.117.35 1.633.233-.349-.116-.234.116-.117-.233-4.2a16.322 16.322 0 00-.7-3.966l.233-.117-.466-.116-.35.233.116.116a3.112 3.112 0 00-1.049.408 3.1 3.1 0 01-1.05.409c0 .233-.079.37-.234.408a2.247 2.247 0 00-.466.175l-1.634.584v.233h-.116l-.233-.117-.117.117.117.116h-.234l-.116-.116-.351.466h-.233v.233l-.466.117-.234.35-.816 1.05h-.117c-.389-.154-.8-.33-1.225-.525a3.723 3.723 0 01-1.108-.758 9.79 9.79 0 01-.642-1.284 3.886 3.886 0 01-.291-1.516l.583-1.166-.233-.7.466-.234-.116.117.466.117 1.167-.583.116.116.117-.116.233.116.817-.234 1.05.351 1.4-.351.116.118.817-.351.234.117 2.8-.816.117.116 1.05-.583-.234-.467-.116.117.233-.35-.117-.467.117.117.117-.233-.35-.234v-.116l.116-.117.117.35.466-.35-.116-.233.116-.234-.116-.233.233-.116-.466-.234-.117-.467.233-.933h.233v-.35l-.116-.116.116-.117-.349-.583.115-.117-.116-.117.116-.116-.233-.117-.117-.233-.116.117.116-.117-.233-.117.117-.35h-.234l-.233.117v-.233h-.35l-.116.466.116.117-.233.7h-.117l-.233-1.75h-.35l-.7-.934-.817-.349-.233.117v-.467l-.7-.467-.117.116v-.349l-.35-.116-.233.232-.116-.116h.349v-.234l-.349-1.049h-.234l-.233-.934-.117.117-.233-.816.116-.234.351-.233.466-1.517-.116-.117.116-.116.117.116 1.05-.466.349.117a2.421 2.421 0 01.759-.526 1.659 1.659 0 01.991-.057l.467.7.467.117.35-.7h.583a2.431 2.431 0 00.758.525 5.721 5.721 0 00.875.291l.467.818h.233l.583.816-.116.116.116.117h-.233v.35l.117.35h.233l.117.35-.117.234h-.233v.231q.467 1.518.874 3.091t.759 3.208l.35-.7-.117-.466v.233l.117.583h-.234l-.116.467.116.116.234-.349h.117l.583 2.215.233-.116-.117.467.234 1.05.116-.117-.233.233.117 2.217-.467.349.117.118.116-.118v.118l-.349.116.116.233h-.233v.351l.233.232.117-.116.116.233-.116.117.116.117-.233-.351-.116 3.151.116.116-.116.35.116.117h-.233l-.117.583.117.117.117-.234h.116v.583l-.116.351h-.117l-.117-.351-.35.934.117.116-.117.117.117.234-.117.233.234 1.4-.117.349.117.117-.117.234.233.233.117-.35v.35l-.467.583.117.116-.234.467.117.117.234-.117.116.117.117-.117v.117h-.233v.234l.116.116-.116.233h-.234l.117-.117-.467-.232-.117.116.234.116-.35.117-.233-.349-.117.932.117.118.116-.467h.117l.116.233.234-.117v.233l-.117-.116-.117.234.234.349.233-.816h.35l-.116.116.233.117v.116h-.233v.234l.116.233h-.233v.234h-.117l-.35-.118-.233.467h.233l.233.584.234-.35.117.233.116-.35v.234h.467l.583-.117v-.234l.233.117 2.45-1.283-.117-.117.234-.116.117.116.116-.233.583-.234.234-.349.35.117.467-.117v-.234h.116l.116.117 1.4-.7v.35l-.233.233.233.117v.117l-.583.233v.233l.117.234-.934.7-.466 1.516h.35l.116-.117-.349.117v.35h.233a41.14 41.14 0 011.342-.641 12.423 12.423 0 001.224-.642v-.233h.117l.117.116.233-.116-.117.116.467.233-4.2 2.1.117.232h-.116l.117-.116-.233-.116-.35.349-.117-.117-.35.234.117.117h-.117l-.116-.117-.351.117-.233.583.233.117.234-.467v.234h.467l.933-.351v-.233l.35-.117-.117.234.117.116.816-.467-4.2 2.1.116.116-.233-.116-.117.116.117.117-.117.116.117.117-1.283.466v.234l-1.284.35v-.117h.117l.117.117.583-.584-.116-.116-.467.116v.234l-.584-.116v.233l.117.233v-.117l-.35-.233-.583.233-.117.234a.416.416 0 00-.466.058 1.143 1.143 0 00-.35.408l.117.117.933-.35v.116l-.35.234-.117-.117-.117.234-1.4.583-.117-.116-.35.349-.233-.117-.351.233-.116-.116-.233.35-.234-.116-.116.116.116.117h-.233l-.233-.233-.234.349.117.117h-.233l-.233-.117-.117.117.117.117-.117-.117-.233.234-.351-.117-1.049.466.233.117h-.117l-.35-.117-.816.35.117.117-.467-.117v.233l-.234-.116-.233.234.117.116-1.05.467-1.4 1.983-.7.583v.233l-.35.35-.583.117v.234zm-1.283-26.132v-.116l-.117-.116-.116.232.116.117zm4.083-14.115l-.117-.116.117-.117zm0-3.266v-.35l.116-.234h.117zm.35.35v-.233l.116-.234v.467zm.467 1.983l-.117-.117-.117.117.117.117zm.233 37.1v-.233l-.117-.118-.116.351.116.116zm.233-36.98v-.117l-.116-.117-.117.234.117.117zm0 36.629l-.116-.116-.117.116.117.118zm.233-37.446l-.116-.117-.117.117.117.116zm.467-.117v-.116l.117-.467h-.35l-.117.351.233.349zm.35-.583v-.233l.117-.35h-.467v.583zm.234-.583l.116-.117-.35-.116v.233l.117.116zm3.149-1.517l-.583-.466h.816v.117l-.35.116.234.233zm-.233 38.031l-.117-.118-.233.35.466.117.934-.467-.234-.116-.466.116-.117-.116-.117.234zm-.233-26.248v-.234l.116.117zm.116.466l-.114-.237v.116zm.583 25.431v-.468h-.233l-.35.234zm.584-27.764l-.234-.117-.116.117.233.117zm0 28.58l-.117-.116-.117.116.117.118zm.233-38.612l-.35-.117v-.233h.466v.117zm-.114 15.512l.117-.467h-.35v.467l.117.117zm0 .233l-.116-.116-.117.116.117.117zm.117 10.15l-.233-1.167.116-1.517.117.7-.117.467.117.816-.117.117zm.113-13.767l-.116-.117-.114.117.117.116zm.117 1.283l-.117-.116-.116.116.116.116zm.117-.349l-.117-.118-.117.118.117.116zm.117 1.283v-.117l.116-.35h-.233l-.117-.233-.117.349.234.467zm0 16.448v-1.165l.116-.467-.35-.232-.117.116.117.116-.117 1.517.234.233zm-.117 7.582l-.117-.116-.117.116.117.117zm.117-24.73l-.117-.118-.117.118.117.116zm0 1.049l-.117-.116-.117.116.117.117zm0 .234l-.117-.117-.117.117.117.116zm.116-.35l-.116-.117-.117.117zm0 14l-.116-.116-.117.116.117.117zm.35-28.813l-.466-.234.116-.117.7.234zm-.116 38.38l-.234-.118-.116.118.233.116zm.116-.118v-.116l-.116-.117-.117.233zm.35-16.681l.233-.234-.466-.116v.35l.117.116zm.7 4.432l-.117-.116.117-.35-.233-.233.116-.35h-.233v-.35l.117.35.116-.817-.35-.116h.117l.117.116.116-.233-.116-.116.116-.467-.233-.7.117-.467-.234-.583-.349.583.116.117-.116.116.116.234-.116.116.116.233-.116.117.233.234-.117.233.233.234-.116-.118-.117.7h.233l-.349.7.116.349-.116.35h.349l.35.351zm-.117 3.151v-.234l.117-.117-.117-.116.117-.117-.35-.234.117-.233h.233v-.933l-.117-.117-.233.234v-.117l.233-.466-.233-.35.117-.117-.35-.467-.117.233.117.118-.233.349.116.234-.116.233.116.233-.116.234.233.349-.117.234.117.116-.117.117.117.467-.117.116.233.117v.234zm-.233 1.283v-.233l-.117-.118-.349.234zm.233-1.051l-.583-.232v.232l.117.117.116-.117.234.117zm-.116.584l.116-.233-.466-.234v.234l.116.116h-.23v.233l.117.118zm-.234 8.049l-.116-.116-.117.116.117.117zm1.05-29.631l.117-.232-.583-1.867-.35-.117-.35.817 1.05 1.516zm-.933 22.4l-.117-.118-.116.118.116.116zm.117 7.116l-.234-.234-.116.234zm.116-7.35l-.233-.116-.117.116.234.116zm.117-2.333l-.117-.117-.116.117.116.116zm.583-23.331l.117-.233-.233-.234-.117.467.117.116zm.934 26.481l-.117-.117-.117.117.117.117zm.7-3.034v-.233l.117-.116-.117-.7.117-.234-.35-2.216-.35 1.284.117.116h-.233l-.117.467.35.116-.117.117.117.116-.233-.116-.117.116.117.117-.117.467.117.116.233-.349.233.583-.233.233zm-.583.7l.117-.117.233.117.117-.117-.234-.466-.233.233v-.117l.117-.35h-.35v.817l.117.117zm.117-1.166l-.117-.118-.116.118.116.116zm.35-3.151v-.349l-.234-.35-.233.7.117.117zm-.234 5.833v-.116l-.116-.117-.117.233.117.116zm-.116-26.131l.233-.349v.116l-.117.233zm.233 1.4v-.583l-.233-.583h.116l.234.933zm.117 28l.116-.117-.35-.117v.234l.117.116zm.116-5.25l-.116-.116-.117.349.117.117zm.234 4.783l-.117-.116-.117.116.117.116zm.233 2.45l-.116-.117-.117.117.117.116zm.117-22.4v-.116l-.117-.118-.116.234.116.117zm.117 20.064v-.232h.233v-.351h-.233l-.35.234.116.117-.116.116zm-.117.117l-.117-.117-.116.117.116.117zm.233 1.984l.117-.117-.233-.117-.117.117-.117-.117-.116.234.116.116zm-.116-21.932l-.117-.116-.117.116.117.116zm.116.7v-.117l-.233-.349-.117.349.234.234zm0 1.517l-.116-.117-.117.233.117.117zm.117.233l-.117-.117-.116.117.116.117zm0 .233l-.117-.116-.116.116.116.117zm.116.817v-.117l-.233-.233-.116.233.233.233zm-.116.234v-.119l-.117-.116-.116.234.116.116zm.233 18.547v-.116h.233l.117-.584-.117-.116-.116.116-.234-.116-.116.116.116.117-.116.35-.233.117.349.233zm.233.583v-.233l-.116-.116-.583.233.349.234zm-.233-28.463l-.117-.467.117.117-.117.116zm-.117 11.782v-.35l.117.116zm.467-10.266v-.233l-.35-.934.117-.116zm0 23.448v-.117l-.117-.116-.116.233.116.117zm.233 2.216v-.116l.351-.117-.351-.234-.233.467.117.117zm0 .934l-.116-.117-.117.117.117.116zm.351 0l.232-.234-.466-.116v.233zm-.117-24.614v-.234l.117.234zm.117.466l-.117-.117h.117zm.349 23.214l.117-.116-.234-.117-.116-.234-.233.467.349.117zm-.234-22.166v-.467h.116l.117.234-.117.233zm.116.7v-.116l-.116-.116.116-.117.234.117v.116zm0 9.567v-.584l-.116-.35.116-.116-.116-.117zm.117 11.315l-.117-.116-.116.35h.35l.12-.116zm.237-18.315v-.35l-.234-1.05.117-.116-.234-.7h.234l.117.7-.117.116.117.117-.117.584.233.349zm-.351 9.1v-1.049l.117.233-.117.116.117.7zm.584 9.683v-.233h.467v-.234l.349-.233-.349-.234-.467.234.117.117-.234-.117-.116.117.116.116-.233.35zm-.117-17.731v-.234l-.116-.117zm0 .7v-.234l.234-.116v.116l-.117.234zm.117.933v-.233h.233l.117.116-.35-.116zm.35 16.682l.233-.116h-.116zm.583-1.517l-.233-.116-.117.116.233.118zm13.766 11.433v-.233h-.467l-.233.116v-.233l-.817-.116-.816-.7a.789.789 0 01-.584-.233 1.477 1.477 0 00-.583-.35 22.1 22.1 0 01-1.808-4.608 23.054 23.054 0 01-.759-4.957l.117-.118-.117-.116.117-.233-.117-.351.117-.232-.233-.584.116-.234-.349-1.049.116-.467-.116-.35.116-.116-.35-.7.117-.117-.117-.117.117-.117-.35-1.166.117-.349-.234-.351.117-.116-.117-.467.117-.117-.234-.817.117-.233-.232-1.519.116-.465v-.935l-.116-.117.116-.35-.233-.467.117-.116-.233-.117h.233v-.35l-.583-1.049.35-.118v-.349l-.117-.35h-.35l-.233-.7.116.116.234-.816-.117-.117-.117.116.234-.35-.117-.466h-.233l.233-.349-.233-.467-.117.116-.117-.233.234-.116-.234-.7-.233.118h.233v-.469l-.116-.117-.117.117.117-.35h-.234v-.117h.234v-.35l-.117-.117-.117.234v-.117l.117-.233-.117-.117-.233.117h.233l.117-.351-.233-.116v-.116l.233-.233-.117-.351h-.349v-.116h.233v-.584l-.233-.233.116-.466-.35-.467.117.116.117-.35-.351-.583.117.117.117-.35-.117-.117-.117.117.117-.351-.35-.7.117-.117-.234-.233.234-.117-.117-.117.117-.466h-.35a3.7 3.7 0 00-.467-1.867 6.8 6.8 0 01-.7-1.749l.35-.7-.116-.117.116-.7-.467-.118h.351v.234h.233q.232-.234.408-.408a.482.482 0 01.525-.059l.817.117a1.04 1.04 0 00.583-.641c.078-.272.155-.526.233-.759l-.116-.116 1.049-.234v.35h.234l.583 1.634-.116.116.349.116.117-.116-.117-.116.117-.118-.233-.7.466.234.234-.234-.234-.7v.116l.234.817-.117-.117-.233.467.116.234-.116.7.35.584.467.349.116.467h-.116l-.467-.7-.467-.116-.233.349.35.467-.117.116.467.467-1.05-.816-.117.233.117.234v-.234h-.233l-.117.116q.816 2.919 1.575 5.892t1.458 6.008l-.117.116.467 1.517.116-.35v.35h-.233v.349a40.26 40.26 0 01.7 4.142 39.667 39.667 0 00.7 4.141l-.116.234.349 1.05.117-.118v.118l-.233.116.35.7-.117.7.117.116.116-.116.117.35h-.233v.349h.233v.118l-.117.349.117.234-.117.117.234.116-.117.583.234.7.116-.116.234.7h-.234v.467h.234l-.117.584h.35l-.233.236.349.467.35.117.117-.117a1.092 1.092 0 00.933.292c.388-.038.738-.058 1.05-.058l.117-.117.466.117.7-.234v.234h.7l.117-.117-.233-.117v-.116l.35-.117.349.233.117-.116.117.116.467-.349.116.116.35-.116-.233.233.466.35.467-.234-.233-.233-.117.117-.117-.233.117-.234h.233l.117-.349.233.116v.467h.351l.583-.234.116-.349.584-.467-.467-.117.233-.35-.116-.116.35-.351h-.117l-.117.117.467.35.116.7h.35l.467-.467a.53.53 0 00.117-.583l-.117-.117-.467.583v-.232l.234-.584h.233l.117.117.117-.233h.116l.117.233.233-.233-.117-.118h.117l.117.118.116-.234-.233-.35.35-.7-.117-.233.117-.117-.233-.466-.234.116-.233-.116.467-.467-.234-.233-.349.233h.116l.233-.35.117.233.467-1.05-.117-.233.35-.116v.233l-.117.116.117.467-.117.233.233.467.35-.584-.116-.116-.116.116.116-.116-.116-.116.116-.234-.116-.117h.232l.117-.349.35.116-.116.117.116.116-.116.117.116.117h-.233l-.117.466.117.234h-.234l-.116.816h.233v.116l-.233.118.233.116-.117.35h.467q.117-.582.233-1.225a6.3 6.3 0 01.351-1.225l-.117-.233.233.117.117-.117-.117-.35.117-.233-.117-.116-.116.116.116-.116-.116-.118.116-.116.117.116-.117.118.351.116.232-.234-1.4 3.967.233.233 1.4-2.567-.116-.116.234-.233-.118-.117.118-.233h.116l.117.233-.117.234.117.232-.233.467.349.584.467-1.4-.116-.117.349-1.167-.116-.233.116-.116-.116-.117.583-.117v.583l-.117.583h.233l.118-.116.116.35v-.118l-.116-.118-.118.234-.233-.234-.116.234.233.233-.467 1.75h.234l-.234.35.117.117h-.35l-.583 2.683.116.117.234-.583v.466l.583.117.466-.351-.116-.116.35-.116-.116-.117h.233l-.117.349.117.117-.117.117.117.117-.233.233.466.116.117-.816-.117-.233.466-1.284.117.117-.233.7.116.117-.466.933.117.584-.117.465.117.118-.117.116.233.233a1.337 1.337 0 00.409-.7 5.124 5.124 0 00.058-.817h-.117l.117.117.233-.7v.7l-.116.233.116.116h-.233l-.117.7h.35l.117.933.234-.35-.118-.117.118-.117.116 1.167-.116.35.465.7.234-.117.233.584h-.233l-.467-.234-.232.467 1.049.933v.117h-.117l-.932-.233v.349h.232v.117l-.35.117.234.349-.234.234.35.7h-.232l-.934-.234v.234l-.467.233-.349-.233-.118.233.351.583.116-.116.117.116-.117.117-.816-.35-.234.233.117-.233-.466-.234v.351l.116.116-.35.351.234.7-.351.117-.349-.467-.7-.116-.116.466h-.233l-.7-.35v.583h-.817v.351l.116.116.118-.233h.116v.233l-.234.117-.7-.233v-.233l-.933-.351-.234-.35-.35.118-.466-.234-.117.116-.583-.116-.117.116-.466-.116-.467.234-.117-.118-2.683.934.117.35-1.05.466.117.234-.117.116-.35-.116-1.05.349-.467.467-.233-.116-.233.116-.117-.116-.233.466.116.117zm-10.732-43.165v-.116l.117.116zm3.146 16.915v-.233l-.117-.117-.116.35.116.117zm.817-17.731l-.234-.117-.117.117.234.116zm0-1.633l-.117-.234.233.117.117-.117v.117zm.7.466v-.35h-.233v-.116l.35.116v.117zm.117 1.4v-.117h.117zm1.4 9.8v-.234l-.117-.816v.583zm1.05 6.182v-.465l-.117-.234v.116zm2.1 27.065l-.117-.116-.117.116.117.117zm.35-24.148l-.35-.117v-.116l.467.233zm2.333 1.75v-.466l-.117-.118-.233.118v-.118l.117-.349-.117-.117-.117.117.117-.117-.234-.117h.234v-.349l-.117-.117.35-.117v-.35l.35-.116-.116-.467.116-.116-.35-.234-.933.7-.817-.349-.233.233.117-.349-.117-.118-.233.118-.117-.351.234-.116-.35-.117v-.234h.116l.117.117.117-.233h.233l.116-.35-.116-.466.583-.118v-.349l.467.233v-.233l-.117-.234h.233v-.349l-.116-.117.116.466h.35l.467-.233.583-1.283.117.117.233-.467h.233v-.236l-.116-.117-.117.117v-.117h.117l.116.117.234-.234-.117-.116.117.116.233-.583-.116-.117.583-.583h.233l.583-1.516-.116-.117.233-1.05-.467-1.284h.234l.349.351.117-.351-.117-.116.584 1.05.233-.233.234.233.116-.816h-.233l-.117.116v-.116l1.167-.583.116.116-.116.117.233.116.35-.233-.233-.35.117-.117.232.351.234-.584h.233v-.234l-.116-.232h.116l.117.349-.117.234.35.233.467.583.116.234.117-.118.117.118-.117.466 1.05.583.233-.466.584-.234.116.117a3.339 3.339 0 011.05-.525 4.062 4.062 0 011.167-.175v.234l-1.05.933-.233-.467h-.234l-.583.7.7.233.117-.116a4.442 4.442 0 011.283.175 2.506 2.506 0 011.05.641l.7-.233.116.35-.116.117.116.116-.233.35-.117-.233-.7.816.351.118.349-.234-.116.467-.35.232-.234-.232-.467.232-.116.351-.7.7-.233.116v-.233l-1.284-.116-.116.116-.467-.35-1.166 1.284.467-.7-.467-.349-.35.466-.7.233-1.166 1.867-.467.35-1.4 2.1-.584.234.117.117-1.166.7.116.117-.233-.117-.117.117.117.117-.933.583-.234.584h-.233v.233zm-2.333-3.966v-.117h.12zm.35.933v-.118l-.117-.116-.233.349.117.118zm.583 1.283l-.35-.117.7-.233v.117zm1.75-.933l-.117-.116-.116.116.116.117zm.233.233l-.116-.116-.117.116.117.116zm.817 1.167l-.35-.35-.7.466v.234l.233.233.817-.35zm-1.05 2.216v-.116h.233zm.35-3.732l-.117-.118-.116.118.116.116zm.817 3.032l.116-.233.117.117.116-.117zm.349-8.516l-.116-.116-.117.116.117.117zm0 3.267l-.116-.116-.117.116.117.116zm1.517-8.866l-.234-.117h.117zm.7.35l-.467-.35h.234l.233.117.35-.234h-.117l-.233.234.117.116zm-.467 12.948v-.116l.35-.35zm.467-.7l.117-.233h.116v.116zm.7-.817l-.35-.234h.116l.117.118.35-.467.35-.35v.116zm.116-12.016l-.35-.116h.467zm-.116 35.114v-.117h.466v-.231h.234v.117zm.35-34.18l-.117-.116-.117.116.117.117zm1.633 23.915l-.117-.117-.116.117.116.116zm.233.466l-.116-.117-.117.117.117.117zm-.116-25.781v-.117h.116v.117zm.7 8.049v-.117h.117zm.117.817v-.117l.117-.117zm.234 12.6v-.116l.116-.116-.116-.117.233-.234v.117zm.116 2.567l.117-.117-.117-.116.117.116.117-.233v.117zm.234.933l-.117-.116-.117.116.117.117zm.233 9.916l.116-.349-.466-.351-.117.7.35.116zm.35-12.482v-.116l-.117-.118-.117.351.117.116zm0-14.582l.35-.116h-.234zm.233 16.1l-.117-.116-.116.116.116.117zm0 .35l-.117-.116-.116.116.116.117zm.233-1.633v-.116l-.116-.117-.117.233.117.116zm.117-.233v-.116l.116-.118-.349-.116v.35l.116.117zm.35.816v-.116l.116-.117-.466-.234-.233.234.349.467zm-.234.584l-.233-.233-.116.349h.233zm.118-.117l.116-.233-.116-.117-.351.234zm-.234-3.85l.116-.116v.116zm.234.583l.116-.116-.116-.117.116-.232h.116l-.116.232.116.117zm.816 4.55l.467-1.05h-.234a4.451 4.451 0 00-.408.467.6.6 0 00-.058.583l.116.117zm.467-18.2l-.117-.116-.117.116.117.117zm.816 18.2l.116-.233-.116-.116.116-.467-.116-.117-.349 1.05h.232zm.234-1.166l.116-.467-.116-.117-.118.117-.116-.117-.117.467.233.233zm0-1.283l-.118-.117-.116.117.116.116zm.116-.117l-.116-.116-.118.116zm.117.816l.116-.116-.116-.117.116-.466-.116-.117-.233.816.116.117zm.116-3.732v-.234l.234-.117v.234zm.234 3.849v-.117l.117-.349-.117-.118-.234.584.117.117zm.35 3.733l.233-.933-.7-.35-.117.117.117.116-.117.934.117.116.117-.116zm-.117.117l-.233-.117-.117.117.234.116zm0-4.55l-.116-.116-.117.116.117.116zm.117-.116v-.117l-.117-.116-.116.233zm.116-.351v-.116l-.116-.117-.117.233.117.118zm.234-.932v-.117l-.117-.117-.117.234.117.116zm-.234 2.216v-.12h.117zm1.167-19.949l-1.05-.466v-.233l1.167.7zm-.35 20.765v-.116l-.116-.35v.116l.116.117.117-.233.35-.117-.117.117.117.233zm.117 2.217l-.117-.116-.116.116.116.117zm-.117-3.616v-.118l.117-.116zm0 1.983v-.12l.117.117zm.233-1.4v-.12l-.116-.117zm.35-2.216l-.116-.117.116-.117zm0-.467v-.584l.233-.232v.116l-.233.467.117.233zm.233 4.782v-.232l.117-.117v.117l-.117.116.117.116zm.117 8.05v-.117l-.117-.35.117.116.117-.116v.234zm0-10.032v-.117l.117-.117-.117.117.117.117zm.467 1.166v-.116l.35-2.217h.116v.117zm2.1 6.066l-.7-.349.233-.351.233.583h.35v.117zM194.803 378.643a3.461 3.461 0 01-1.342-.992q-.523-.641-1.107-1.341v-.233h-.233l-.234-.584-.35-.117q-1.633-3.031-3.325-6.125t-3.208-6.357h-.233l-.116.117.116.233-.116.117.116 2.45-.116.232.116.118-.116.349h-.117l-.35-.233-.117.467h-.234l-.116.816.116.117-.116.467.234.233-.351-.117a3.191 3.191 0 01-.116.875 1.748 1.748 0 01-.467.758l.117.117-.233.583-.234-.116-.35.467.35.232v.117l-.7.35.117.117-.817.933-.933 1.167h-.235l-.117.467-.7.7-.351-.117v.233l-.467.233-.116-.117.467-.116v-.35h.233l.35.117v-.234l.233-.116-.116-.233.466-.234.233-.583h.234l.35-.817.35-.116v-.35h.349l.234-1.051.35-.232.35-.818h.233a9.3 9.3 0 00.583-1.458 3.571 3.571 0 00.118-1.574l-.584-.467-.117.583h-.117l.117-.466h.234v-.234l-.117-.233.233-.7h.233v-.467h-.233l.117-.583-.35-.584-.234.933.117.117.117-.234h.117v.117l-.584.35.117.233-.583.351-.233 1.4.116.35h-.116l-.118-.116-.466.816.117.117h-.234l-.349.7-.467.35-.117-.117-.234.117-.116-.117-.116.233-.817.467-.35.467.116.116h-.232l-.117-.116-1.166.816-.118.234-.232.116-.116-.116a4.209 4.209 0 01-1.226.875q-.641.291-1.341.641l-.117-.117-1.516 1.167-.117.35-.35.117.117-.117-.233-.116-.35.233.233.116v.117l-.117.234-.349.116-.118-.116-.349.583h-.234l-.116.467v-.118l.35-.816-.117-.116h.233l.233-.584-.116-.116 1.633-1.984a5.75 5.75 0 001.342-1.691 4.441 4.441 0 011.342-1.575l.116.466q.35-.465.7-.991a3.125 3.125 0 00.467-1.225l-.117-.117-.234.35v-.117l.117-.35h.35l.467-1.75-.116-.7.116-.116-.116-.117.116-.817-.116-.117.116-.233-.116-.117.116-.233-.116-.467-.351-.233-.7-.234q-2.1 1.168-4.316 2.217t-4.316 2.1a4.092 4.092 0 01-.934 1.225 9.39 9.39 0 00-1.049 1.108h-.35l-.233.7.116.816h.233v.118l-.116-.118-.233.118-.118-.118-.116.351.116.7-.116.117.116.234-.233.349.117.118-.117.116.351.816h-.118l-.233-.116-1.05-2.45-.349.816.116.117.117-.117v.117l-.117.117.117.117-.233.116.233.117-.233.35.116.233-.234.35-.233-.116-.232-.35-.118.35.234.816-.234-.233-.116.35.116.116-.233.817h-.118l-1.4-2.1-.349-.116-1.05.466v.35l-2.1 1.166v.234q-1.516.817-3.033 1.691a5.527 5.527 0 01-3.5.642 2.136 2.136 0 00-.524-.175c-.2-.038-.292-.175-.292-.408l1.516-1.283.117.117q1.982-1.05 3.966-2.276t3.966-2.274l-.467-.934.118-.466-.35-.234-.117-.7.117-.117-.117-.7.233-.933-.116-.467.116-.233a11.334 11.334 0 01-.349-1.808 6.588 6.588 0 00-.467-1.808l.116-.467-.116-.116.116-.234-.116-.584h-.467q-1.4.7-2.916 1.283t-3.033 1.051l-.117-.117-.817.35q-.35 2.217-.524 4.549t-.292 4.55l.116.116-.116.118.233 1.516-.117.116.233.118v.233l-.233.35.117.117q-.35.584-.641 1.107a3.766 3.766 0 00-.409 1.226 5.894 5.894 0 00-.816-2.567 5.861 5.861 0 01-.817-2.566l.117-.584-.117-.583.35-1.633-.117-.467.351-2.683-.118-.35.234-.816-.116-.117.116-.234-.116-.116.349-2.1-.116-.117a8.2 8.2 0 00.291-1.691 8.028 8.028 0 01.29-1.692l-.117-.233.467-2.8-.117-.116q.351-1.633.642-3.325t.642-3.442l-.118-.116.118-.117-.234-1.05.116-.233-.233-.817.233-.233-.233-.933.351-.117.116-.583h.233v-.585l.35-.233v-.584l-.116-.35h-.234v-.116l.117-.934-.117-.233v.117l.117.116.35-.233.116.467h.351l.467-.583.116.116a13.866 13.866 0 01.583-1.808 13.573 13.573 0 01.816-1.692l1.75-.7v.233h1.283l.234-.117.467.233.117-.116.116.116a2.01 2.01 0 01.991-.408 7.306 7.306 0 00.992-.175l1.75.817.35 1.283a4.535 4.535 0 00-.583 1.05 6.727 6.727 0 00-.351 1.167h.234l.233 1.749-.116.233.116.584-.116.116.35 1.984-.117.233.35 1.984-.117.465h.233l.467 3.5-.116.117.233 1.75-.117.117a.472.472 0 01.233.583.525.525 0 00.118.583l-.118.467h.234v.117l-.234.349.234.117.116.466-.116.234.116.233-.116.117.349.583-.116.234.583 3.5-.116.233.233.584-.117.116.234.467-.117.35.117.233-.117.583.117.117.233-.117.233.7-.117.351.351.116.233-.116v.116l-.233.234.116.233-.233.7.35.7.35.118 2.566-1.75-.816-.118-.35.118-.233-.118v-.232l-.818-.351a1.053 1.053 0 01-.465-.875 2.2 2.2 0 00-.234-.991l.116.116.467-.816.35-.116.117.816a53.44 53.44 0 005.016-2.858q2.449-1.575 4.9-3.208l-.117-.116.349-.467.118.349h.349l.584-.816-.114-.583.117-.117-.233-.234.116-.349-.116-.35.116-.117-.35-.467.117-.466-.117-.233.117-.117-.117-.116.117-.467-.467-2.917-.466.932.232.118v.116l-.116.233-.349-.116.233-.117-.117-.35.117-.117-.117-.233.583-.466v-.584l-.116-.234.116-.7-.116-.117.116-.116-.116-.117.116-.35h-.35v-.233l.116-.234-.116-.116-.233.583h-.234v.35h-.116v-.232l.234-.116-.118-.233.118-.234-.118-.233h.118l.116.117.117-.584-.117-.116-.234.349v-.116l.118-.583-.118-.117-.116.117-.35-.233-.7 1.05-.233-.467-.467.816.234.467-.583.116-.234.584.116.234-.116.232-.117-.116a6.9 6.9 0 00-.7 2.508q-.117 1.342-.35 2.625l.35.116.233-2.1v.7l-.233 1.4-.233.117.117 1.05-.117.117.117.116-.117.817h-.233l-.584 2.1h-.233l-.233-.233-.117.233v-.116l.117-.117-.117-.116.233-1.167-.233-.233-.467 1.166-.583.234-.233.933-.116-.35h-.351l-.116-.467.116-.116-.35-1.517.117-.116a6.25 6.25 0 01-.291-1.575q-.059-.875-.059-1.692l.116-.117-.232-1.517.116-.232-.116-.117.116-.234-.116-.116.232-.933-.116-.35.583-2.45-.116-.467.467-.466-.118-.467.467-.35.116-.35-.116-.116q.7-1.4 1.283-2.858a7.773 7.773 0 011.75-2.625l.467-.117v-.469h.116l.118.116.116-.467-.467-1.05.117-.116-.35-.583.233.233.117-.466-.35-.118v-.466h-.234l.117-.233-.466-.7.116-.467-.817-.583-.116.7-.117-.116-.116.234.233.466-.35-.466h-.234v-.118l.583-.233v-.7l-.233-.584.467-.466.116.116.233-.583-.467-.233.467.233.234.467-.467.35v-.234h-.35l-.117.35.934.817.466-.35c-.078-.234-.058-.388.059-.467a3.872 3.872 0 01.408-.233l-.233-.35h.583l.7.467.116-.234.817-.233.817.35.35-.117.349.117 1.05-.7a4.391 4.391 0 00.642-1.458 3.318 3.318 0 01.641-1.342l.934-.466.233.466.583.117.7-.583-.116-.117-.233.234v-.117l.7-.117.117.117-.117.117.817 1.633-.117.933.117.817-.117.116.117.467-.117.233-.233-.35h-.467l-.35.466.117.117-.233.35.116.233-.233.934.233.467.117-.117.117.233-.7.467.117.233-.117.817.233.349.35-.116a2.192 2.192 0 01.175-.875 4.612 4.612 0 01.409-.758l-.118-.117.467-1.283v.583l-.583 1.634.116.583-.116.466h.583l.117-.117-.35-.466.233-1.05h.117l.117 1.283-.117.35.583.35.583-.233.583.233.934-.467.116.117.234-.117.117.117.116-.117 2.1.467.349-.233 1.4.816.233 1.283q-.232.469-.467.875a1.745 1.745 0 00-.232.875l.116.117-.233.35.117.233-.117.117.233.117.816 2.217-.116.349.35.467-.116.116.116.467h.233l-.116.233.116.117-.116.117a17.649 17.649 0 01.583 1.866 8.932 8.932 0 00.7 1.866l-.117.117 1.167.35.233-.116.817.583.116.467.934.233.116-.117.117.117.35-.117.117.117.466-.117.117.117-.35.116-.35.584a10.322 10.322 0 00-1.75 1.108 10.7 10.7 0 00-1.517 1.459q-1.4.467-2.857.991a13.726 13.726 0 00-2.742 1.342l-.117.233-.349.116-.7-.233-.933.467-.234 1.167-.116-.234-.116.119v-.116l.117-.467h-.233l-.35.467.234.234-.118.116-.116-.35.234-.35-.467-.234v.818l.116.116-.35.349.117.234-.117.584h.7l.116-.467-.234-.351.35-.349v.116l-.116.117.467.817.116-.117.117.234.233-.117v.117l-.117.232.583.234q.933 1.867 1.867 3.792t1.984 3.791l.116-.117 2.217 3.966.233.116v.351h.233l.233.35.117-.117a3.081 3.081 0 00.525 1.284c.271.388.525.778.758 1.166l.35.117.467.467.7 1.049.583.234-.116.349h.233l.116.234-.116.349.116.234zm-46.778-8.982v-.467l.116-.117-.116-.117a1.6 1.6 0 00.116-1.049.969.969 0 01.234-.934l-.234-.35.467-2.333-.117-.933.112-.118-.117-.117.233-2.45-.116-.116-.351 1.633.118.117-.35 1.983.116.234-.349 1.866.116.35-.234 1.167.118.116-.118.117.118.233-.234.817.35.583zm-.117.583v-.118l.117-.233-.117-.116-.234.467.118.116zm3.383-10.033v-.117l.35-.116.234.116a7.518 7.518 0 002.041-.524 12.4 12.4 0 012.041-.642l1.284.234v-.584l-.117-.234.117-.816-.117-.116.117-.7a5.515 5.515 0 01-.643-1.808q-.174-.99-.291-2.041l.116-.234-.349-.7.116-.349-.466-1.633.116-.117-.466-1.284.117-.116-.117-.117.117-.467-.117-.233.117-.116-.467-.117v.233l-.233.117.116.35-.466.35-.351 1.05-1.049.233a1.059 1.059 0 00-.35.758 1.352 1.352 0 01-.233.759l.116.116-.467 1.167.117.35-.117.233h-.232l-.234 2.567.116.233-.349.233-.584 3.966zm-.234.117l-.116-.117-.117.117.117.117zm11.2 4.783v-.234a.723.723 0 00.234-.525v-.524l-.7-.584v.35l.117.583h-.234v.234l.234.583zm.118-17.965v-.117l-.118-.116.118-.118-.118-.349.234-.117-.234-.817.118-1.166-.118-.817.118-.116v.349l-.118.467h.234v.233l-.116.118.228 2.563v-.467l-.116-.117zm.116-3.967l-.116-.233.232-.467v.117zm.233-4.783v-.232l-.233-.234.349-.467-.349-.466h.112l.233 1.049zm-.233 3.5v-.116l.112-.237v.234zm0 8.166v-.467l.116.117zm.112 1.281v-.116h.117v.116zm.117-11.9l.116-.117v.117zm.116 1.05l-.116-.118h.116zm0 8.982v-.7l-.116-1.167v.584zm-.116 3.383v-.234l.116.117zm.116 1.4v-.233l.234-.116-.116-.35.116-.117.117.7zm.118 1.167v-.467l.349-.233.117.117h-.233l-.117.583zm.349.934v-.467l-.116-.233.116-.118.117.584zm.117.932l-.233-.349h.116l-.116.116zm0 1.284V357.877l-.117-.234.117-.117.117.933zm.7 9.566l.117-.233-.351-1.167h-.349l-.35.233.467 1.167.349.116zm-.583-7.233v-.117l.233-.117v.234l-.116-.117zm.466 3.735v-.116h.117zm.583 5.366l.118-.117-.234-.35-.117.467.117.116zm.234.817v-.234l.117.234zm.349.933v-.116l-.232-.35h.116l.234.467zm.234.583l-.116-.116h.116zm.35 1.283l-.117-.233v.117zm1.284 4.083v-.583l.233-.117-.233-.349h.349l-.116.233.116.233h-.233zm.116.467l-.116-.117h.116zm1.05-.816v-.116l.117-.35h.233l.234-1.05h-.351l-.116.116-.351-.116-.349.234.117.116h-.117v-.116l.349-.467.117.116.117-.467h-.234l.117-.232h.117l.117.466.7-.7-.117.35h-.234v.233l.118.117-.234.117.467.116.116-.116.116.116zm-.583.116v-.116l.117-.117-.117-.117.117.117zm.7-2.8v-.232h.233l.234-.467-.351.7zm.583 1.167l-.116-.117-.118.117.118.116zm.7-.35l-.233-.234.466-.932.117.116.233-.116h-.233v.349l.117.117.466-.466v.116zm.233-.466l-.117-.117-.116.117.116.116zm.117-.117l-.117-.117-.117.117zm-.234 1.049v-.115l.234-.117-.117-.116.117.116zm.7-2.1l.117-.234v.118zm.234-42v-.115h.116zm.233 4.083l-.117-.35v.116zm.467.233v-.117l-.351-.7.118-.117.233.583.116-.466h.117l.233.816zm.233-.233l-.117-.117-.116.117.116.116zm.35 1.516v-.35h-.233l-.117.117.117-.233.349.233zm0-3.616l-.117-.117-.116.233.116.118zm.116.234l-.116-.118-.117.118.117.116zm0 40.246l-.116-.118-.117.118.117.116zm.117-22.748v-.583l.117-.118zm1.75-5.133l-.117-.117-.116.117.116.116zm0 22.514l.583-1.283h.234l.349-1.4h.118v.233l-.818 2.1zm1.284.7l-.118-.118-.116.118.116.116zm.116-19.949v-.584h-.234l.118-.349h.233l-.233.349.349.118v.116l-.233.467zm-.234 25.2v-.117l.234-.35v.117zm.234-19.949v-.113l.117-.35-.117-.117.117-.117-.117-.116.117-.7h-.233l.233-.234-.117-.116.117-.117-.233-.466.116-.117-.116-.116.349.116v.233l-.116.35.116.467-.116.117.116.116-.116.234.116.116.116-.116v.116l-.232.467.232.233zm.233-8.515l-.116-.117-.117.117.117.116zm0 3.966l-.116-.117-.117.117.117.117zm0 6.3l-.116-.349.35-.117h-.234zm-.116 8.049v-.113l.116.116zm0 9.449l.7-.583-.349.118v.232h-.234v.233zm.466-1.4l.35-.233v.116l-.117-.116zm.35-.7l.234-.234v.118zm.933-17.965l-.116-.117-.116.117.116.116zm.467-2.1v-.233l-.35-.583-.233.7.116.117.117-.117zm-.234.583v-.233l-.116-.116-.117.349.117.117zm.118-.349l-.118-.117-.116.117.116.116zm1.048-1.631l.117-.116-.466-.117v.35h.232zm0 .584l.117-.467h-.35l-.116.116.116.118-.116.349h.232zm.35 23.214l.117-.467h.116v.351zm.584-23.681l-.115-.117-.116.117.116.116zm.7 18.548v-.465l.117-.233-.117-.116-.583.933h.234zm.934-20.182l-.117-.116-.117.116.117.118zm1.866 4.667v-.466l.351-.118v.234h.234l.233-.467-.349-.7-.234.233.118.116h-.118l-.116-.466-.117.233a8.02 8.02 0 00-.583-2.392 22.373 22.373 0 00-1.05-2.158h-.233l-.117.117.117.117-.117.117.233.467-.116.349.116.116-.116.118.583.233.117.233-.117.466.117.234h-.233l.116-.466-.35-.351-.117.351.117.116-.233.7.233 1.983-.117.117a4.409 4.409 0 01.176.758.887.887 0 00.408.641zm-.7-7.932l-.583-1.283-.234.465.351.934h.35zm-.817 3.149v-.117l.118.117zm.817-2.8v-.116l-.116-.117-.117.233.117.117zm.817 17.032l.35-.35a.789.789 0 01-.234-.583v-.7h-.233l.117-.583v.467h.35v-.35l-.234-.7-.116.349-.117-.117-.233 1.051.117.232-.351 1.75.117.118.234-.467zm-.233-16.215l-.117-.116-.117.116.117.117zm.349.7l-.233-.583h-.233l-.117.116.467.7zm-.116 16.1l.116-.467h-.348l-.234.467.35.116zm.116-10.383l-.116-.116-.117.116.117.117zm.118-5.483l-.118-.117-.116.117.116.117zm.116 14.465l-.116-.116-.118.116.118.117zm1.167 3.384v-1.4l.116-.35-.35-.584.117-1.4-.7-.817-.116.116.234 1.4-.118.116.234.934-.234.932.234.467.234-.581h.117v.233l-.466.467.116.116-.234.583.234.351.117-.233h.116l.234.233zm-.584-4.9l-.116-.117-.118.117.118.117zm10.848 15.633a1.747 1.747 0 01-.7-.583 4.667 4.667 0 00-.583-.7l-.7-1.633h-.23l-.234-1.283h-.233l-.35-.467.116-.116-.233-.467-.35-.117.117-.349-.35-1.05-.35-.116h.35v-.234l-.35-.35-.117.233h-.116l-.934-1.75.118-.116-.234-.117-.35-.583.117-.467-.467-.116v-.467l-.467-.35h.234v-.35h-.234l-.816-1.4-.116.116.116-.349h-.234l.118-.117-.234-.233.116-.117-.583-.7-.117.117v-.117l.117-.116-1.283-2.1-.233-.117v-.234l-.351-.116.234-.233-.7-.7h.117l1.983 1.283h-.233v.233q.7 1.168 1.283 2.392a12.272 12.272 0 001.4 2.274l-.116.234.467.35.233.583h.234l1.866 3.383.116-.116.584.583-.117.116 1.516 1.867.35.234-.116.116.233.7.467.467a3.988 3.988 0 01.875 1.283 5.217 5.217 0 00.758 1.283l-.35.7h-.117l-.116-.232-.234.232-.233-.232zm-10.382-9.332v-.349l.117-.117v.117zm.933-5.833l-.117-.233.233.117v.116zm.583-2.215l-.116-.234v.116zm2.217 6.649v-.117l-.117-.116zm2.336-15.285v-.467l-.117-.35-.7-.117v.117l.233-1.049-.467-1.284.116-.117-1.283-3.383-.116.467.233.583-.117.35.234.817-.117.116.234.35.116-.233v.466l-.116-.116-.117.234.233.349.116-.233.117.35-.117.117.117.349v-.233l-.233-.35a1.341 1.341 0 00-.233.759 2.38 2.38 0 01-.117.758l.117.116.117-.232.349-.118.117-.349.233.583-.233.7.117.467h-.234v.232l.117.117.584-.117.116.584.467-.233.116.116zm-1.634-1.283l.234-.467-.466-.116v.232l-.234.117.117.35h.233zm.7 1.166l-.116-.117-.117.117.117.117zm1.05 7.233v-.233l.117-.234-.233-.933h-.233v-.234l.349-.233a.864.864 0 01.408.584 4.894 4.894 0 01.059.816zm.817 12.481l-.117-.116-.116.116.116.118zm2.334 9.8l-.118-.117h.118zm3.732-1.4l-.116-.116.116-.351-.116-.116-.117.233h-.117l-.35-.583.233.466h.234l.234-.114v.349l-.116.118zm.117.816v-.233l.35.117zm.116-.466v-.117l.118.117zM78.703 385.743l2.706 4.771h.015v-3.942c0-.543-.06-.588-.61-.588v-.241h1.507v.241c-.5 0-.565.045-.565.588v4.816h-.467l-2.872-5.027h-.014v4.131c0 .543.053.588.58.588v.241h-1.507v-.241c.542 0 .6-.045.6-.588v-3.92c0-.558-.045-.588-.6-.588v-.241zM85.951 388.53c0-2.035.964-2.9 2.344-2.9 1.492 0 2.344 1 2.344 2.9 0 1.922-.844 2.9-2.344 2.9-1.792.002-2.344-1.378-2.344-2.9zm1.16-2.066a3.269 3.269 0 00-.5 2.066 3.567 3.567 0 00.5 2.051 1.536 1.536 0 002.367 0 3.575 3.575 0 00.5-2.051 3.276 3.276 0 00-.5-2.066 1.456 1.456 0 00-1.176-.543 1.51 1.51 0 00-1.191.543zM96.197 385.743a2.288 2.288 0 011.477.362 1.241 1.241 0 01.513 1.077 1.485 1.485 0 01-1.379 1.461l1.107 1.9c.287.475.4.536.754.536v.241h-1l-1.478-2.586h-.693v1.757c0 .549.038.588.6.588v.241h-1.824v-.241c.55 0 .6-.045.6-.6v-3.912c0-.543-.046-.588-.6-.588v-.236zm-.5.3c-.181 0-.2.068-.2.475v1.907h.535c.9 0 1.5-.316 1.5-1.259 0-.632-.362-1.123-1.349-1.123zM104.28 386.065v4.425c0 .549.031.588.709.588v.241h-2.043v-.241c.671 0 .709-.039.709-.588v-4.425h-.92c-.445 0-.5.038-.663.942h-.279l.181-1.266h3.987l.174 1.266h-.279c-.166-.912-.227-.942-.656-.942zM114.557 385.982c-.558 0-.6.045-.6.588v3.92c0 .543.044.588.6.588v.241h-1.754v-.241c.489 0 .528-.045.528-.581v-1.929h-2.588v1.929c0 .536.038.581.528.581v.241h-1.757v-.241c.551 0 .6-.045.6-.588v-3.92c0-.543-.045-.588-.6-.588v-.239h1.757v.241c-.49 0-.528.038-.528.573v1.7h2.586v-1.7c0-.542-.039-.58-.528-.58v-.234h1.756zM121.638 391.319h-3.551v-.241c.551 0 .6-.045.6-.588v-3.92c0-.543-.045-.588-.6-.588v-.239h3.34l.241 1.183h-.294c-.2-.851-.279-.882-.7-.882h-1.078c-.257 0-.279.053-.279.37v1.846h1.017c.347 0 .393-.067.393-.761h.294v1.854h-.294c0-.73-.046-.783-.393-.783h-1.017v2.1c0 .3.06.34.219.34h1.349c.438 0 .513-.053.716-.9h.294zM127.303 385.743a2.289 2.289 0 011.478.362 1.24 1.24 0 01.512 1.077 1.485 1.485 0 01-1.381 1.461l1.108 1.9c.286.475.4.536.754.536v.241h-1l-1.478-2.586h-.693v1.757c0 .549.038.588.6.588v.241h-1.824v-.241c.55 0 .6-.045.6-.6v-3.912c0-.543-.045-.588-.6-.588v-.236zm-.505.3c-.18 0-.2.068-.2.475v1.907h.535c.9 0 1.5-.316 1.5-1.259 0-.632-.361-1.123-1.348-1.123zM134.284 385.743l2.706 4.771h.015v-3.942c0-.543-.06-.588-.611-.588v-.241h1.509v.241c-.505 0-.566.045-.566.588v4.816h-.466l-2.872-5.027h-.016v4.131c0 .543.053.588.581.588v.241h-1.508v-.241c.543 0 .6-.045.6-.588v-3.92c0-.558-.046-.588-.6-.588v-.241zM149.443 387.565v1.854h-.286c0-.723-.075-.784-.408-.784h-.972v1.855c0 .549.038.588.717.588v.241h-1.946v-.241c.551 0 .6-.045.6-.588v-3.92c0-.543-.045-.588-.6-.588v-.239h3.369l.249 1.2h-.293c-.2-.829-.272-.9-.694-.9h-1.123c-.257 0-.279.053-.279.385v1.906h.965c.332 0 .415-.089.415-.768zM153.576 391.078c.618 0 .656-.045.656-.588v-3.92c0-.543-.038-.588-.649-.588v-.239h1.93v.241c-.61 0-.648.045-.648.588v3.92c0 .543.038.588.648.588v.241h-1.937zM162.844 390.075l-.263 1.244h-3.551v-.241c.551 0 .6-.045.6-.6v-3.9c0-.543-.044-.588-.6-.588v-.247h1.832v.241c-.566 0-.6.038-.6.6v4.07c0 .324.046.362.249.362h1.3c.438 0 .521-.06.731-.935zM171.342 385.743h1.261v.241c-.565 0-.6.045-.6.588v3.92c0 .543.044.588.6.588v.241h-1.8v-.241c.535 0 .566-.045.566-.588v-3.949h-.015l-1.915 4.81h-.234l-1.99-4.824h-.012v3.957c0 .543.03.588.549.588v.241h-1.469v-.241c.549 0 .588-.045.588-.588v-3.943c0-.527-.039-.565-.588-.565v-.235h1.2l1.96 4.7h.022zM176.393 389.943c.234.934.6 1.175 1.3 1.175a1.071 1.071 0 001.131-1.077c0-.678-.385-.92-1.192-1.424a4.067 4.067 0 01-1.168-.928 1.508 1.508 0 01-.218-.769c0-.543.377-1.3 1.635-1.3a3.037 3.037 0 011.162.2c.037.3.1.739.165 1.108l-.287.053c-.158-.8-.316-1.055-1.07-1.055a.91.91 0 00-1.017.859c0 .566.308.777 1.084 1.282a4.433 4.433 0 011.214.9 1.528 1.528 0 01.31.936c0 .851-.656 1.522-1.81 1.522a4.058 4.058 0 01-1.3-.234 8.639 8.639 0 00-.226-1.168zM20.388 0H.003v85.743H20.39V22.509h81.338v253.043h-81.34v-149.7H.003V298.18h121.354V0H20.388zM232.819 0h-100.97v298.18h121.354v-85.747h-20.384v63.239h-81.338V22.628h81.338v149.7h20.384V0z"/></symbol><symbol viewBox="0 0 137.693 162.15" id="brand-symbol" xmlns="http://www.w3.org/2000/svg"><path d="M11.087 0H0v46.629h11.087V12.237h44.231v137.608H11.087V68.437H0v93.712h65.994V0H11.087zM126.606 0H71.699v162.15h65.994v-46.629h-11.087v34.389H82.375V12.305h44.231v81.407h11.087V0z"/></symbol><symbol viewBox="0 0 23 23" fill-rule="evenodd" clip-rule="evenodd" stroke-linejoin="round" stroke-miterlimit="2" id="icon-download" xmlns="http://www.w3.org/2000/svg"><path d="M20.935 20.451v-7.74a1 1 0 012 0v8.768l-.002.032-.001.012a1 1 0 01-.997.928H.974l-.013-.001-.025-.001-.019-.001-.051-.006-.018-.003-.025-.004-.024-.004-.025-.006-.019-.004-.011-.003-.024-.007-.005-.001A1.002 1.002 0 010 21.451v-8.74a1 1 0 012 0v7.74h18.935zM10.569 10.424V1a1 1 0 012 0v9.423l4.367-4.367A1 1 0 0118.35 7.47l-6.074 6.074a.965.965 0 01-.323.216l-.003.002a1.003 1.003 0 01-1.089-.218L4.787 7.47a1 1 0 011.414-1.414l4.368 4.368z"/></symbol><symbol viewBox="0 0 29 40.999" id="icon-pin" xmlns="http://www.w3.org/2000/svg"><path d="M14.5 41L0 0h1.611l12.89 28.522L27.389 0H29L14.5 40.995z"/></symbol></svg>
